<svg xmlns="http://www.w3.org/2000/svg" xmlns:xlink="http://www.w3.org/1999/xlink" width="1142.514" height="1053.742" viewBox="0 0 1142.514 1053.742"><defs><style>.a,.m,.n,.o{fill:none;}.b{fill:url(#a);}.c{fill:#fff;}.d{fill:#2df8c0;}.e{fill:#13a87f;}.f{clip-path:url(#b);}.g{fill:#1e1770;}.h{fill:#100036;}.i{fill:#c7e5ef;opacity:0.23;}.j{opacity:0.26;fill:url(#c);}.k{fill:#27e5b1;}.l{fill:#2c9e7f;}.m{stroke:#5ed8b7;}.m,.o{stroke-miterlimit:10;}.n,.o{stroke:#68e5c3;stroke-linecap:round;}.n{stroke-linejoin:round;}.p{fill:#68e5c3;}.q{fill:url(#d);}.r{fill:url(#e);}.s{fill:url(#f);}.t{fill:#528df2;}.u{fill:url(#g);}</style><linearGradient id="a" x1="0.047" y1="-0.001" x2="0.627" y2="0.557" gradientUnits="objectBoundingBox"><stop offset="0" stop-color="#003252" stop-opacity="0"/><stop offset="0.649" stop-color="#003252" stop-opacity="0.522"/><stop offset="1" stop-color="#001126" stop-opacity="0.851"/></linearGradient><clipPath id="b"><path class="a" d="M115.421,63.058C108.6,94.332,82.564,103.073,50.639,96.972,21.54,91.411-5.476,64.421.958,34.921,6.648,8.829,26.911-5.2,71.263,1.787,107.71,7.532,121.545,34.975,115.421,63.058Z"/></clipPath><linearGradient id="c" x1="0.007" y1="0.542" x2="1.003" y2="0.542" gradientUnits="objectBoundingBox"><stop offset="0" stop-color="#003252"/><stop offset="1" stop-color="#001126"/></linearGradient><linearGradient id="d" x1="-0.93" y1="0.407" x2="0.68" y2="0.407" xlink:href="#c"/><linearGradient id="e" x1="-1.424" y1="0.146" x2="-0.201" y2="0.146" xlink:href="#c"/><linearGradient id="f" x1="-3.191" y1="-0.302" x2="-1.986" y2="-0.302" xlink:href="#c"/><linearGradient id="g" x1="0" y1="0.5" x2="1" y2="0.5" xlink:href="#c"/></defs><g transform="translate(-101.661 165.845) rotate(-13)"><path class="b" d="M556.68,620.764C528.992,679.355,426.1,708.585,419.666,761.7s45.472,99.687,52.146,110.657c0,0,1.819,7.423,2.436,22.222,0,0-70.251-73.569-68.5-132.9s112.937-90.431,129.61-142.411c16.693-55.078-89.209-84.468-124.927-155.609s49.548-154.186-50.374-201.514c-53.714-25.441-215.344,8.277-303.379-56.559S9.286,11.572,9.865,11.179C12.09,9.674,41.321,0,41.321,0s-54.562,131.775,31.5,191.169S334.8,209.3,392.459,238.649C503,294.907,381.216,388,439.141,462.818,484.511,531.06,584.368,562.173,556.68,620.764Z" transform="matrix(-0.921, 0.391, -0.391, -0.921, 1086.791, 823.463)"/><g transform="translate(31.11 205.299) rotate(-10)"><path class="c" d="M268.123,10.194C255.9,3.229,241.669-8.362,212.572,9.416,190.843,22.691,140.2,39.939,125.362,43.27c-21.4,4.807-48.056,6.616-79.724,14.237s-22.65,5.785-42.923,9.568c0,0-2.41,3.161-2.708,11.194s8.773,9.428,9.212,9.4c8.638-.625,100.416-.74,138.068-7.236C187.972,73.41,217.409,64.367,251.72,53,274.305,45.519,280.658,17.338,268.123,10.194Z" transform="translate(62.831 0)"/><path class="d" d="M65.556,42.1s-15.493-3.859-21.6-3.984C36.807,37.972,31.461,37.973,30.2,38c-4.5.1-16.908.736-17.175-.974-.419-2.676,5.819-2.788,9.065-3.543,2.506-.581,2.627-1.427.391-1.456-4.637-.06-18.814,2.081-18.354-1.787.6-5.047,13.767-2.115,16.273-3.2,1.51-.657,2.161-2.528-1.438-2.776C16.766,24.109-.531,25.453.013,20.486c.3-2.752,11.12-2.113,11.12-2.113s9.949.805,10.273-.377c.629-2.3-7.577-3.03-11.751-4.2C4.7,12.4,2.989,10.745,4.5,8.854c1.674-2.1,12.392.373,16.644,1.018s14.412,1.513,10.551-1.129C27.33,5.755,24.556,3.5,25.031,1.349s4.373-1.665,8.541.958c2.71,1.706,6.9,4.281,8.678,5.5,2.08,1.413,8.474,4.571,10.027,5.48,0,0,14.027.478,15.993-.3C71.815,11.594,65.556,42.1,65.556,42.1Z" transform="matrix(0.978, -0.208, 0.208, 0.978, 0, 64.408)"/></g><path class="c" d="M85.072,3.36c6.993,1.349,5.888-7.754,32.217-.562,17.324,4.732,46.9,12.013,58.127,16.626S150.407,141.01,133.38,178.695c-9.754,21.584-15.412,34.17-16.569,37.467-1.17,3.337-30.861,18.971-36.053,17.772-10.257-2.369-65.6-12.986-65.6-12.986S-2.065,223.566.207,181.019C9.144,148.945,26.959,110.848,33.915,90.9,45.2,58.546,41.005,59.587,45.183,43.345,51.534,18.658,77.924,1.979,85.072,3.36Z" transform="translate(267.807 147.161)"/><path class="c" d="M1.592,21.465a29.2,29.2,0,0,0,.018-18.5C-.244-2.306-.406.466.661,3.49s2.359,8.869,1.145,13.7S1.213,22.526,1.592,21.465Z" transform="translate(467.533 79.4)"/><g transform="translate(309.262 34.346) rotate(-11)"><g transform="translate(0 0)"><path class="c" d="M165.493,94.135c-11.9,54.574-55.585,74.241-101.973,64.125S-8.61,114.6,2.618,63.117c9.93-45.532,45.868-69.44,97.844-61.668C147.417,8.468,176.181,45.128,165.493,94.135Z" transform="translate(0 0)"/></g><g transform="translate(9.856 28.868)"><path class="e" d="M125.538,62.688c-7.621,34.936-35.1,48.121-70.888,41.281C22.033,97.733-4.084,72.277.53,37.188c3.164-24.078,22.388-43.251,72.1-35.4C113.485,8.232,132.378,31.315,125.538,62.688Z" transform="translate(0 0)"/></g><g transform="translate(14.055 35.011)"><g class="f" transform="translate(0 0)"><ellipse class="g" cx="66.532" cy="55.288" rx="66.532" ry="55.288" transform="translate(-7.098 -10.48)"/><path class="h" d="M48.737,100.419S55.223,82.575,66.3,75.328c13.073-8.553,29.55-59.56,17.491-59.05-6.053.256-17.59,5.432-22.488-5.292C54.16-4.646,38.549,1.055,20.295.845-7.457.524-2.483,24.8,10.051,29.94,16.926,32.755,3.98,59.049,3.98,59.049Z" transform="translate(31.271 -13.198)"/><path class="h" d="M15.025,1.121S10.714,20.3,9.156,18.8c-1.44-1.379-7.156.159-8.049,6.6-.642,4.634,1.024,10.011,4.024,9.09,0,0-2.921,9.9-1.343,16.943,1.321,5.9-3.976,20.761,0,22.714,0,0,6.938-2.151-2.415,6.007-5.131,4.476,4.906,7.511,17.02,11.574,22.982,7.708,22.129,1.621,22.723-5.366L54.356,53.9s8.148-6.113,8.539-12.42c.369-5.964-3.113-9.3-8.519-6.234,0,0,2.649-15.183-2.357-22.576S18.067-3.062,15.025,1.121Z" transform="translate(30.442 21.972)"/><path class="i" d="M7.793,2.708C-.687,11.266-.288,25.162.234,30.144c.546,5.216,2.619,5.489,3.877,5.61,1.71.161,2.244-2.621,2.192-7.223C6.23,21.986,11.555,8.378,12.947,4.037S12.192-1.733,7.793,2.708Z" transform="translate(9.862 17.492)"/><path class="j" d="M23.527.4c9.061,4.452-1.365,26.054-12.769,34.988-5.249,4.113-7.991,2.228-9.747.887-2.383-1.819-.3-7.2,3.581-11.545A40.819,40.819,0,0,0,14.151,7.984C15.913,2.222,20.236-1.216,23.527.4Z" transform="translate(83.546 51.757)"/><path class="i" d="M1.361.276C0,1.315-.578,3.263.748,5.362a2.191,2.191,0,0,0,3.883.048c.526-.986,1.19-1.744-.1-4.153A2.374,2.374,0,0,0,1.361.276Z" transform="translate(11.831 55.352)"/></g></g><g transform="translate(16.449 16.177)"><path class="k" d="M6.164.966C8.7,2.785,22.414,7.777,31.211,8.1c12.007.444,6.7,13.277-8.059,10.922C11.384,17.145,4.677,14.1,1.369,7.822-2.577.321,2.94-1.346,6.164.966Z" transform="translate(19.202 116.66)"/><path class="d" d="M.366,11.379C6.324,5.5,15.413,1.533,23.182.376s4.464.661,0,1.324S10.618,4.455,5.493,8.616-.681,12.413.366,11.379Z" transform="translate(7.026 4.882)"/><path class="d" d="M29.225.633C22.16,5.117,12.439,7.077,4.6,6.567S.376,4.978,4.88,5.274s12.864-.04,18.753-3.022S30.467-.155,29.225.633Z" transform="translate(69.336 126.944)"/><path class="d" d="M.35,14.334A19.816,19.816,0,0,0,3.594,2.2C3.3-1.58,2.707.21,2.88,2.381s0,6.228-1.643,9.186S-.084,14.963.35,14.334Z" transform="translate(130.074 68.623)"/><path class="d" d="M.072.991C2.2,5.735,5.625,7.983,9.956,10.647c2,1.228,2.621.808,2.436.274-.216-.623-1.528-1.544-2.869-2.367A24.779,24.779,0,0,1,3.131,2.19C.784-1.217-.3.158.072.991Z" transform="translate(0 101.542)"/><path class="d" d="M.888,20.931C8.248,15.854,12.808,8.89,13.718,3.285S12.47.274,11.952,3.492A23.165,23.165,0,0,1,4.161,16.921C-.975,21.149-.406,21.824.888,20.931Z" transform="translate(116.426 101.242)"/><path class="d" d="M1.268,11.639c12.1-.456,19.523-4.365,24.514-8.355,4.563-3.649,2.21-4.262-1.125-1.817C21.7,3.636,16.383,8.76,7.578,9.74S-.856,11.72,1.268,11.639Z" transform="translate(87.15 128.257)"/><path class="d" d="M15.874,7.889C12.722,4.552,7.542,1.814,2.943.525s-3.067.109-.427.847A29.238,29.238,0,0,1,12.533,6.538C15.311,8.986,16.428,8.476,15.874,7.889Z" transform="translate(94.9 0)"/><path class="d" d="M6.586,7.026A13.533,13.533,0,0,0,1.345.547C-.07-.415-.407-.011.518,1.009c1.2,1.321,3.472,2.643,4.4,4.373C6.035,7.451,6.761,7.538,6.586,7.026Z" transform="translate(119.212 8.039)"/></g></g><path class="l" d="M0,164.108c.108-1.694,10.295-6.918,16.8-20.059,4.1-8.277,4.256-20.977,8.247-31.943C29.4,100.15,37.242,88.116,39.22,79.819c3.03-12.709.41-24.458,2.872-37.645,2.2-11.793,7.678-17.849,10.008-23.964C56.135,7.624,57.264,2.795,57.811,1.743c.354-.674,1.273-2.2,1.591-1.614s-.075.8-.774,2.972c-1.061,3.31-1.546,6.934-4.943,15.977C51.947,23.7,45.213,32.573,43.422,42.108c-2.765,14.713,1.1,22.634-2.83,38.025-3.559,13.929-10.468,24.151-13.75,33.106s-3.309,17.487-6.2,26.967C16.149,154.978-.2,167.339,0,164.108Z" transform="translate(307.515 174.149)"/><g transform="matrix(0.848, 0.53, -0.53, 0.848, 222.418, 246.096)"><path class="c" d="M303.465,70.046S197.724-3.852,162,.157L0,82.744v23.808S70.421,94.455,104.379,85.3s50.39-26.069,50.39-26.069,55.709,34.58,88.671,54.609,59.5,37.039,59.5,37.039l56.694-60.6Z" transform="translate(12.551 364.677) rotate(-92)"/><path class="d" d="M68.082,31.65,16.548,20.659,8.683,11.95s-26.574-25.791,13.255-1.594L64.074,2.549Z" transform="matrix(-0.326, -0.946, 0.946, -0.326, 110.409, 419.72)"/><path class="m" d="M0,35.835A86.936,86.936,0,0,0,1.926,24.816,27.834,27.834,0,0,1,4.65,14.9,103.9,103.9,0,0,0,7.838,3.141C8.183.665,9.271,0,9.271,0" transform="matrix(0.309, -0.951, 0.951, 0.309, 82.575, 59.521)"/><path class="n" d="M0,17.96s.469-2.4.727-5.524a17.427,17.427,0,0,1,1.03-4.968c.225-.8,1.075-4.653,1.205-5.894S3.5,0,3.5,0" transform="translate(9.353 205.665) rotate(-92)"/><path class="o" d="M2.522,20.53A27.68,27.68,0,0,1,.006,9.406,17.451,17.451,0,0,1,3.068,0" transform="translate(15.823 215.628) rotate(-92)"/></g><g transform="translate(314.549 333.721) rotate(19)"><path class="c" d="M262.56,2.491S155.269-10.718,104.554,23.7L0,163.689l22.406,10.253S63.047,148.929,87.7,121.1s54.276-54.835,54.276-54.835,129.034,13.873,150.394,9.8,17.3-.472,17.3-.472Z" transform="translate(0 296.555) rotate(-90)"/><path class="d" d="M68.892,15.249,27.851,48.3,15.713,41.634s-39.946-19.953,7.545-4.015L43.784,0Z" transform="translate(156.394 337.073) rotate(-90)"/><path class="m" d="M0,1.85a21.2,21.2,0,0,0,16.395-.826C24.861-3.151,30.12,6.6,33.121,9.412s16.245,10.541,19.756,9.542,6.433,7.9,6.433,7.9" transform="matrix(0.588, -0.809, 0.809, 0.588, 6.574, 49.778)"/></g><g transform="translate(290.891 66.221)"><ellipse class="p" cx="9.809" cy="8.548" rx="9.809" ry="8.548" transform="translate(30.963 142.563) rotate(-85.92)"/><ellipse class="l" cx="4.107" cy="3.58" rx="4.107" ry="3.58" transform="translate(36.325 137.23) rotate(-85.92)"/><path class="q" d="M35.513,13.348S-8.9,57.647,24.849,79.966c27.742,18.348,19.265,46.876,18.64,54.941,0,0-3.843,2.585-5.978-.476,0,0,3.942-37.727-17.126-46.145S-1.187,63.765.71,51.5C5.446,20.871,34.19,2.109,35.594,1.277A14.121,14.121,0,0,1,38.7,0S35.878,10.452,35.513,13.348Z" transform="translate(0 0)"/></g><g transform="translate(293.181 203.179)"><ellipse class="p" cx="9.809" cy="8.548" rx="9.809" ry="8.548" transform="translate(17.761 39.084) rotate(-85.92)"/><ellipse class="l" cx="4.107" cy="3.58" rx="4.107" ry="3.58" transform="translate(23.123 33.751) rotate(-85.92)"/><path class="r" d="M17.234,0C11.316,4.978,8.719,13.112,10.9,16.431c4.149,6.305,19.874,6.452,19.465,11.737,0,0-.327,6.21-6.182,4.343,0,0-14.211-1.891-21.137-10.3C-2.665,15.272.568,6.233,5.272,3.313Z" transform="translate(0 0)"/></g><g transform="translate(356.044 235.333)"><ellipse class="p" cx="8.963" cy="9.952" rx="8.963" ry="9.952" transform="matrix(0.626, -0.78, 0.78, 0.626, 0, 13.982)"/><path class="l" d="M1.617,7.68c1.97,1.183,4.873.034,5.889-1.78A4.129,4.129,0,0,0,5.777.474C3.807-.708,1.69.478.677,2.294S-.351,6.5,1.617,7.68Z" transform="translate(9.431 9.46)"/><path class="s" d="M59.986,27.452c-5.742,5.472-16.854,8.888-29.335,2.607C20.338,24.867,7.837-.326,4.654,0A7.4,7.4,0,0,0,0,6.6S9.019,29.91,23.459,39.854c17.431,12,34.035,4.232,36.918,1.014Z" transform="translate(10.554 9.931)"/></g><g transform="translate(381.425 190.565) rotate(-9)"><path class="c" d="M39.376-6.456c-4.034,4.222-17.948,23.05-19.931,33.2-2.655,13.589-1.55,28.133-.259,37.347,3.536,25.217.059,89.379.059,89.379S13,181.894,8.192,205.444,1.24,227.086,0,247.67c0,0,2.484,3.1,10.206,5.339s11.271-6.23,11.346-6.66c1.486-8.535,40.915-61.443,43.73-99.547,3.042-41.176,5.313-63.428,2.6-99.471C66.09,23.606,49.344-16.89,39.376-6.456Z" transform="translate(21.226 0)"/><path class="t" d="M1.221,44.957A16.973,16.973,0,0,1,.5,47.737C-.626,40.206.338,17.848,1.575,12.418,3.085,5.792,4.458,0,4.458,0S3.87,3.07,3.832,3.286C2.485,11.1,1.771,12.3,1.381,16.324.207,28.422,1.221,44.957,1.221,44.957Z" transform="translate(28.79 43.205)"/><path class="d" d="M50.242,10.35s-7.5,14.1-9.1,20c-1.869,6.9-3.162,12.084-3.44,13.316-.988,4.395-3.382,16.582-5.1,16.429-2.7-.242-1.3-6.321-1.242-9.656.042-2.571-.75-2.892-1.319-.73-1.181,4.484-2.536,18.757-6.18,17.374-4.75-1.8,1.283-13.87.833-16.564-.272-1.623-1.928-2.708-3.042.724-.678,2.093-3.563,19.2-8.249,17.469-2.6-.96.643-11.3.643-11.3s3.192-9.458,2.122-10.059c-2.077-1.167-4.773,6.619-6.926,10.382C6.685,62.206,4.671,63.464,3.2,61.537c-1.627-2.131,3.363-11.932,5.017-15.9s4.96-13.614,1.46-10.509C5.725,38.638,2.86,40.781.892,39.8s-.558-4.646,3-8.055c2.314-2.218,5.825-5.654,7.436-7.089,1.875-1.674,6.488-7.116,7.746-8.4,0,0,3.861-13.493,3.585-15.588C22.162-3.109,50.242,10.35,50.242,10.35Z" transform="translate(0 228.544)"/></g><g transform="translate(368.557 92.173)"><ellipse class="p" cx="10.996" cy="10.222" rx="10.996" ry="10.222" transform="translate(0 120.44) rotate(-60.178)"/><ellipse class="l" cx="4.604" cy="4.28" rx="4.604" ry="4.28" transform="translate(8.333 117.85) rotate(-60.178)"/><path class="u" d="M110.256,15.312S128.14,76.159,80.423,81.976s-69.5,19.4-80.2,31.029c0,0-1.9,6.674,5.524,6.674,0,0,23.564-21.155,50.907-22.959S111,83.345,117.521,70.945s15.842-40.005-3.982-69.362L112.357,0S110.9,12.128,110.256,15.312Z" transform="translate(10.866 0)"/></g></g></svg>