<svg xmlns="http://www.w3.org/2000/svg" xmlns:xlink="http://www.w3.org/1999/xlink" width="691.952" height="740.099" viewBox="0 0 691.952 740.099"><defs><style>.a,.o,.p,.q,.r{fill:none;}.b{fill:url(#a);}.c{fill:#6468f1;}.d{fill:#fff;}.e{fill:url(#b);}.f{fill:url(#c);}.g{fill:#528df2;}.h{fill:#248c95;}.i{clip-path:url(#d);}.j{fill:#041c5b;}.k{fill:#000b36;}.l{fill:#c7e8ef;}.m{opacity:0.26;fill:url(#e);}.n{fill:#32b2be;}.o,.p,.q{stroke:#32b2be;}.o,.q,.r{stroke-miterlimit:10;}.p,.q,.r{stroke-linecap:round;}.p{stroke-linejoin:round;}.r{stroke:#528df2;}.s{fill:url(#f);}.t{fill:url(#g);}.u{fill:url(#h);}.v{fill:url(#i);}.w{fill:url(#j);}.x{fill:url(#k);}.y{fill:url(#l);}.z{fill:url(#m);}</style><linearGradient id="a" x1="0.7" y1="3.798" x2="0.719" y2="6.727" gradientUnits="objectBoundingBox"><stop offset="0" stop-color="#fff"/><stop offset="1" stop-color="#ececec"/></linearGradient><linearGradient id="b" x1="-0.023" y1="1.665" x2="-0.001" y2="2.477" xlink:href="#a"/><linearGradient id="c" x1="1.746" y1="1.304" x2="1.818" y2="2.201" xlink:href="#a"/><clipPath id="d"><path class="a" d="M-630.357,738.263c-7.691,35.261-37.045,45.116-73.04,38.238-32.809-6.27-63.269-36.7-56.015-69.962,6.416-29.418,29.261-45.239,79.267-37.358C-639.05,675.659-623.452,706.6-630.357,738.263Z" transform="translate(760.492 -667.167)"/></clipPath><linearGradient id="e" x1="0.007" y1="0.542" x2="1.003" y2="0.542" gradientUnits="objectBoundingBox"><stop offset="0" stop-color="#003252"/><stop offset="1" stop-color="#001126"/></linearGradient><linearGradient id="f" x1="0.026" y1="0.5" x2="0.974" y2="0.5" xlink:href="#a"/><linearGradient id="g" x1="0" y1="0.5" x2="1" y2="0.5" xlink:href="#e"/><linearGradient id="h" x1="-9.507" y1="-1.734" x2="-8.55" y2="-1.734" xlink:href="#a"/><linearGradient id="i" x1="-0.93" y1="0.407" x2="0.68" y2="0.407" xlink:href="#e"/><linearGradient id="j" x1="-8.148" y1="-1.492" x2="-7.19" y2="-1.492" xlink:href="#a"/><linearGradient id="k" x1="-1.424" y1="0.146" x2="-0.201" y2="0.146" xlink:href="#e"/><linearGradient id="l" x1="-26.241" y1="-2.308" x2="-25.174" y2="-2.308" xlink:href="#a"/><linearGradient id="m" x1="-3.191" y1="-0.302" x2="-1.986" y2="-0.302" xlink:href="#e"/></defs><g transform="translate(-1451.312 -328.277) rotate(-16)"><g transform="translate(1178.465 874)"><g transform="translate(199.388 140.244)"><path class="b" d="M-585.869,723.708c-13.784-7.853-29.827-20.922-62.634-.877-24.5,14.967-77.052,26.883-93.787,30.639-24.129,5.42-55.442,6.143-82.8,3.854-21.034-1.761-25.056-5.181-47.913-.915,0,0-2.718,3.563-3.053,12.621s9.891,10.63,10.386,10.594c9.74-.7,101.106,30.6,143.558,23.273,45.872-7.914,79.062-18.11,117.747-30.925C-578.9,763.537-571.736,731.763-585.869,723.708Z" transform="translate(923.458 -712.215)"/><path class="c" d="M-823.337,770.673s-17.468-4.351-24.358-4.492c-8.055-.161-14.084-.159-15.507-.128-5.075.118-19.063.83-19.365-1.1-.472-3.017,6.561-3.143,10.22-3.995,2.826-.656,2.962-1.608.441-1.642-5.228-.067-21.213,2.347-20.694-2.015.676-5.691,15.522-2.385,18.347-3.613,1.7-.74,2.436-2.85-1.622-3.129-2.474-.17-21.975,1.345-21.363-4.255.342-3.1,12.538-2.382,12.538-2.382s11.218.908,11.583-.425c.709-2.59-8.543-3.416-13.249-4.74-5.59-1.575-7.516-3.436-5.811-5.568,1.888-2.362,13.971.42,18.765,1.148s16.249,1.707,11.9-1.273c-4.921-3.369-8.048-5.917-7.513-8.337s4.93-1.877,9.63,1.08c3.055,1.924,7.775,4.827,9.784,6.2,2.345,1.593,9.554,5.154,11.306,6.178,0,0,15.815.539,18.031-.333C-816.28,736.279-823.337,770.673-823.337,770.673Z" transform="translate(897.25 -698.619)"/></g><g transform="translate(489.458)"><path class="d" d="M-580.986,755.655c-13.419,61.531-62.672,83.706-114.973,72.3s-81.326-49.23-68.667-107.271c11.2-51.337,51.715-78.292,110.318-69.53C-601.366,659.068-568.936,700.4-580.986,755.655Z" transform="translate(767.576 -649.52)"/></g><path class="e" d="M-712.063,710.668c7.885,1.521,22.854,9.29,52.54,17.4,19.533,5.335,52.883,13.545,65.537,18.745s-28.2,137.087-47.4,179.575c-11,24.335-15.044,26.25-24.677,38.006s-28.8,25.628-34.653,24.277c-11.565-2.671-98.7-113.779-98.7-113.779s22.819,18.656,45.886-47.49c12.721-36.48,10.722-59.491,15.432-77.8C-730.933,721.763-720.122,709.111-712.063,710.668Z" transform="translate(1217.656 -574.043)"/><g transform="translate(552.932 172.249)"><path class="f" d="M-690.846,728.812c-10.959,11.471-14.887,52.216-12.4,69.975,3.986,28.431,3.206,94.856,3.548,110.439.546,24.727-7.467,55.281-16.314,81.27-6.8,19.982-11.093,23.055-12.491,46.264,0,0,2.8,3.5,11.507,6.02s12.708-7.024,12.793-7.509c1.676-9.623,54.174-90.689,57.348-133.651,3.429-46.425,1.572-81.092-1.492-121.73C-650.36,753.138-679.608,717.048-690.846,728.812Z" transform="translate(752.436 -726.523)"/><path class="g" d="M-715.564,783.967s-.749,3.592-.817,3.135c-1.265-8.491-.178-33.7,1.216-39.821,1.7-7.471,3.25-14,3.25-14s-.663,3.461-.705,3.706c-1.519,8.812-2.324,10.158-2.764,14.7C-716.707,765.325-715.564,783.967-715.564,783.967Z" transform="translate(766.735 -681.888)"/><path class="c" d="M-682.554,864.507S-691,880.4-692.81,887.053c-2.107,7.775-3.565,13.625-3.879,15.014-1.114,4.955-3.814,18.7-5.755,18.524-3.042-.273-1.461-7.127-1.4-10.887.047-2.9-.846-3.261-1.488-.823-1.331,5.055-2.859,21.148-6.968,19.589-5.355-2.033,1.447-15.638.939-18.676-.307-1.83-2.174-3.053-3.43.816-.765,2.36-4.017,21.647-9.3,19.7-2.928-1.083.725-12.741.725-12.741s3.6-10.664,2.393-11.341c-2.342-1.315-5.382,7.462-7.809,11.706-2.881,5.044-5.151,6.462-6.809,4.29-1.834-2.4,3.791-13.453,5.657-17.929s5.592-15.35,1.646-11.849c-4.458,3.959-7.688,6.375-9.907,5.272s-.629-5.239,3.38-9.082c2.608-2.5,6.568-6.375,8.384-7.993,2.114-1.888,7.315-8.023,8.733-9.473,0,0,4.353-15.213,4.042-17.575C-714.213,849.331-682.554,864.507-682.554,864.507Z" transform="translate(739.201 -570.283)"/></g><path class="d" d="M-617.358,803.614s-109.947-4.259-181.394,58.3l-117.883,157.834,25.262,11.561s32.251-26.418,60.043-57.791,74.766-63.609,74.766-63.609S-618.282,889-594.2,884.4a348.446,348.446,0,0,0,39.213-10.062,51.368,51.368,0,0,0,15.568-8.629Z" transform="translate(1072.661 -458.994)"/><path class="d" d="M-574.328,834.656s-119.221-83.319-159.5-78.8L-961.75,817.825v26.843s106.45,7.122,144.737-3.2,75.033-19.005,75.033-19.005,45.608,31.5,82.772,54.078,84.238,37.374,84.238,37.374l50.521-38.347Z" transform="translate(1016.858 -518.208)"/><path class="c" d="M-859.383,913.719l-46.273,37.267-13.685-7.519s-45.038-22.5,8.507-4.527l23.143-42.415Z" transform="translate(1047.401 -343.994)"/><path class="c" d="M-922.46,823.885l-58.1-12.392-2.8-15.359s-10.959-49.138,8.88,3.742l47.508-8.8Z" transform="translate(986.386 -493.863)"/><path class="c" d="M-742.657,717.563c2.864,2.051,18.321,7.679,28.239,8.046,13.538.5,7.552,14.969-9.087,12.314-13.267-2.118-20.83-5.548-24.559-12.629C-752.513,716.836-746.292,714.957-742.657,717.563Z" transform="translate(1279.26 -566.703)"/><g transform="translate(500.57 32.548)"><path class="h" d="M-621.067,734.75c-8.592,39.39-39.578,54.256-79.925,46.543-36.775-7.031-66.222-35.732-61.019-75.294,3.568-27.147,25.241-48.765,81.292-39.918C-634.656,673.351-613.354,699.377-621.067,734.75Z" transform="translate(762.608 -664.07)"/></g><g transform="translate(505.305 39.475)"><g class="i"><ellipse class="j" cx="75.014" cy="62.336" rx="75.014" ry="62.336" transform="translate(-8.003 -11.816)"/><path class="k" d="M-689.771,773.764s7.312-20.119,19.8-28.291c14.739-9.643,33.317-67.152,19.721-66.577-6.825.288-19.832,6.124-25.355-5.966-8.053-17.625-25.654-11.2-46.235-11.434-31.29-.362-25.682,27.012-11.55,32.8,7.751,3.174-6.845,32.82-6.845,32.82Z" transform="translate(779.979 -675.424)"/><path class="k" d="M-728.208,679.5s-4.861,21.62-6.617,19.937c-1.624-1.555-8.069.179-9.075,7.436-.724,5.225,1.154,11.287,4.537,10.249,0,0-3.293,11.162-1.514,19.1,1.489,6.655-4.483,23.408,0,25.609,0,0,7.822-2.425-2.722,6.773-5.785,5.046,5.532,8.469,19.19,13.05,25.912,8.691,24.951,1.828,25.619-6.051l14.927-36.6s9.187-6.892,9.628-14c.416-6.724-3.51-10.484-9.605-7.028,0,0,2.986-17.119-2.658-25.454S-724.778,674.789-728.208,679.5Z" transform="translate(779.471 -653.468)"/><path class="l" d="M-746.734,679.036c-9.561,9.65-9.111,25.317-8.523,30.934.615,5.881,2.953,6.189,4.371,6.326,1.928.181,2.53-2.955,2.472-8.144-.083-7.38,5.921-22.723,7.491-27.617S-741.775,674.029-746.734,679.036Z" transform="translate(766.641 -656.261)"/><path class="m" d="M-691.855,693.7c10.216,5.02-1.539,29.375-14.4,39.448-5.919,4.637-9.01,2.512-10.99,1-2.687-2.051-.335-8.118,4.037-13.016,6.219-6.964,8.793-12.381,10.778-18.88S-695.566,691.883-691.855,693.7Z" transform="translate(812.579 -634.899)"/><path class="l" d="M-752.994,695.377c-1.53,1.172-2.186,3.369-.691,5.735a2.47,2.47,0,0,0,4.378.054c.593-1.112,1.342-1.966-.11-4.682A2.676,2.676,0,0,0-752.994,695.377Z" transform="translate(767.868 -632.657)"/></g></g><path class="n" d="M-755.332,672.964c6.717-6.623,16.965-11.1,25.724-12.406s5.033.745,0,1.492-14.166,3.107-19.944,7.8S-756.513,674.13-755.332,672.964Z" transform="translate(1271.669 -636.39)"/><path class="n" d="M-691.387,722.371c-7.965,5.056-18.926,7.266-27.764,6.691s-4.763-1.792.315-1.458,14.5-.045,21.143-3.407S-689.987,721.484-691.387,722.371Z" transform="translate(1310.516 -560.291)"/><path class="n" d="M-693.53,707.012a32.92,32.92,0,0,0,.02-20.864c-2.089-5.937-2.273-2.812-1.069.6s2.66,10,1.291,15.448S-693.957,708.209-693.53,707.012Z" transform="translate(1346.404 -608.341)"/><path class="n" d="M-693.33,708.423a22.343,22.343,0,0,0,3.657-13.683c-.333-4.259-1-2.241-.8.206s0,7.022-1.852,10.357S-693.82,709.133-693.33,708.423Z" transform="translate(1348.383 -596.651)"/><path class="n" d="M-759.205,709.972c2.4,5.348,6.261,7.883,11.144,10.887,2.25,1.385,2.955.911,2.747.309-.244-.7-1.722-1.74-3.235-2.669a27.937,27.937,0,0,1-7.207-7.176C-758.4,707.483-759.626,709.033-759.205,709.972Z" transform="translate(1267.288 -576.128)"/><path class="n" d="M-699.6,732.3c8.3-5.724,13.44-13.576,14.466-19.9s-1.407-3.4-1.991.233a26.117,26.117,0,0,1-8.784,15.141C-701.7,732.548-701.061,733.309-699.6,732.3Z" transform="translate(1339.873 -576.315)"/><path class="n" d="M-713.929,735.442c13.638-.514,22.012-4.921,27.639-9.42,5.145-4.114,2.492-4.8-1.268-2.049-3.335,2.445-9.33,8.223-19.258,9.328S-716.325,735.534-713.929,735.442Z" transform="translate(1321.622 -559.473)"/><path class="n" d="M-693.554,666.568c-3.555-3.762-9.4-6.849-14.58-8.3s-3.458.123-.481.955a32.972,32.972,0,0,1,11.294,5.825C-694.19,667.806-692.93,667.23-693.554,666.568Z" transform="translate(1326.455 -639.434)"/><path class="n" d="M-691.773,669.648a15.259,15.259,0,0,0-5.91-7.306c-1.6-1.085-1.975-.628-.933.521,1.351,1.49,3.915,2.979,4.964,4.93C-692.395,670.126-691.576,670.225-691.773,669.648Z" transform="translate(1341.611 -634.422)"/><path class="n" d="M-781.666,897.815c.145-1.727,13.809-7.051,22.532-20.443,5.494-8.435,5.709-21.378,11.062-32.554,5.838-12.184,16.356-24.449,19.009-32.9,4.064-12.952.55-24.926,3.852-38.365,2.95-12.019,10.3-18.191,13.424-24.423,5.413-10.788,6.927-15.709,7.661-16.781.474-.687,1.707-2.237,2.134-1.645s-.1.81-1.038,3.029c-1.423,3.373-2.074,7.067-6.63,16.283-2.331,4.713-11.363,13.752-13.766,23.47-3.709,14.994,1.479,23.067-3.8,38.752-4.774,14.2-14.041,24.613-18.443,33.739s-4.438,17.822-8.311,27.483C-760.008,888.51-781.943,901.108-781.666,897.815Z" transform="translate(1239.604 -549.27)"/><path class="o" d="M-797.905,811.8a37.293,37.293,0,0,0,24.168-1.007c12.48-5.089,20.233,6.8,24.655,10.225s23.946,12.849,29.123,11.632,9.482,9.63,9.482,9.63" transform="translate(1219.52 -451.581)"/><path class="o" d="M-801.34,827.736a98,98,0,0,0,2.172-12.423,31.38,31.38,0,0,1,3.071-11.178,117.133,117.133,0,0,0,3.595-13.261c.389-2.792,1.615-3.541,1.615-3.541" transform="translate(1215.271 -479.057)"/><path class="p" d="M-861.211,799.819a81.867,81.867,0,0,0,1.816-10.4,26.208,26.208,0,0,1,2.572-9.355,98.2,98.2,0,0,0,3.009-11.1c.324-2.34,1.351-2.964,1.351-2.964" transform="translate(1141.216 -505.445)"/><path class="q" d="M-863.795,808.507a133.406,133.406,0,0,1-2.689-26.31,77.171,77.171,0,0,1,3.273-22.246" transform="translate(1134.687 -512.926)"/><path class="r" d="M-823.475,861.123a85.159,85.159,0,0,1-23.75-5.807,53.256,53.256,0,0,1-17.559-11.929" transform="translate(1136.797 -409.723)"/><path class="r" d="M-830.443,862.37a110.222,110.222,0,0,1-14.654-9.932A62.336,62.336,0,0,1-855.55,841.75" transform="translate(1148.218 -411.747)"/><g transform="translate(539.486 88.871)"><ellipse class="n" cx="12.397" cy="11.525" rx="12.397" ry="11.525" transform="translate(0 135.794) rotate(-60.178)"/><ellipse class="s" cx="5.191" cy="4.826" rx="5.191" ry="4.826" transform="translate(9.396 132.874) rotate(-60.178)"/><path class="t" d="M-615.423,706.513s20.164,68.6-33.636,75.163-78.365,21.868-90.43,34.985c0,0-2.143,7.525,6.228,7.525,0,0,26.568-23.852,57.4-25.885s61.276-15.082,68.633-29.062,17.862-45.106-4.49-78.205l-1.333-1.785S-614.7,702.923-615.423,706.513Z" transform="translate(751.986 -689.249)"/></g><g transform="translate(451.919 59.61)"><ellipse class="n" cx="11.059" cy="9.638" rx="11.059" ry="9.638" transform="matrix(0.071, -0.997, 0.997, 0.071, 34.911, 160.738)"/><ellipse class="u" cx="4.631" cy="4.036" rx="4.631" ry="4.036" transform="matrix(0.071, -0.997, 0.997, 0.071, 40.956, 154.724)"/><path class="v" d="M-744.318,691.218s-50.078,49.946-12.023,75.111c31.279,20.687,21.72,52.852,21.016,61.945,0,0-4.333,2.915-6.74-.537,0,0,4.445-42.537-19.309-52.028s-24.322-27.646-22.183-41.477c5.339-34.531,37.748-55.686,39.332-56.623a15.93,15.93,0,0,1,3.505-1.44S-743.906,687.952-744.318,691.218Z" transform="translate(784.358 -676.168)"/></g><g transform="translate(454.501 214.029)"><ellipse class="n" cx="11.059" cy="9.638" rx="11.059" ry="9.638" transform="matrix(0.071, -0.997, 0.997, 0.071, 20.025, 44.067)"/><ellipse class="w" cx="4.631" cy="4.036" rx="4.631" ry="4.036" transform="matrix(0.071, -0.997, 0.997, 0.071, 26.071, 38.054)"/><path class="x" d="M-763.773,745.2c-6.672,5.612-9.6,14.783-7.14,18.526,4.677,7.109,22.407,7.274,21.946,13.234,0,0-.369,7-6.97,4.9,0,0-16.023-2.131-23.832-11.616-6.44-7.82-2.794-18.012,2.51-21.3Z" transform="translate(783.204 -745.2)"/></g><g transform="translate(525.377 250.282)"><ellipse class="n" cx="10.106" cy="11.221" rx="10.106" ry="11.221" transform="matrix(0.626, -0.78, 0.78, 0.626, 0, 15.765)"/><path class="y" d="M-744.942,774.834c2.221,1.334,5.494.038,6.639-2.006a4.655,4.655,0,0,0-1.948-6.118c-2.221-1.333-4.608,0-5.751,2.051S-747.161,773.5-744.942,774.834Z" transform="translate(757.398 -755.509)"/><path class="z" d="M-678.566,797.364c-6.474,6.169-19,10.021-33.075,2.939-11.627-5.854-25.722-34.258-29.31-33.887a8.342,8.342,0,0,0-5.248,7.433s10.169,26.286,26.449,37.5c19.654,13.533,38.374,4.772,41.625,1.143Z" transform="translate(758.099 -755.215)"/></g></g></g></svg>