<svg xmlns="http://www.w3.org/2000/svg" xmlns:xlink="http://www.w3.org/1999/xlink" width="1905.919" height="341.028" viewBox="0 0 1905.919 341.028"><defs><style>.a{fill:#0059ff;}.a,.b,.c,.d,.e,.f,.g,.h,.i,.j,.k,.l{fill-rule:evenodd;}.b,.d,.e,.j,.k{mix-blend-mode:multiply;}.b,.d,.e,.i,.j,.k,.m{isolation:isolate;}.b{fill:url(#a);}.c{fill:#00c5ff;opacity:0.55;}.d{fill:#12908b;}.e{fill:url(#b);}.f,.h,.l{fill:#5cf4ff;}.f{opacity:0.75;}.g{fill:#fff;}.i,.m{mix-blend-mode:screen;}.i{fill:url(#c);}.j{fill:url(#d);}.k{fill:url(#e);}.l{opacity:0.53;}.m{fill:url(#f);}</style><linearGradient id="a" x1="-0.854" y1="11.09" x2="-0.854" y2="10.171" gradientUnits="objectBoundingBox"><stop offset="0" stop-color="#fff"/><stop offset="1" stop-color="#9579a7"/></linearGradient><linearGradient id="b" x1="-3.744" y1="6.975" x2="-3.744" y2="5.986" xlink:href="#a"/><radialGradient id="c" cx="0.5" cy="0.5" r="0.5" gradientTransform="matrix(0.901, -0.434, 0.434, 0.901, -1.135, -0.173)" gradientUnits="objectBoundingBox"><stop offset="0" stop-color="#0036ff"/><stop offset="0.091" stop-color="#002dd5"/><stop offset="0.227" stop-color="#00219d"/><stop offset="0.365" stop-color="#00176d"/><stop offset="0.5" stop-color="#000e46"/><stop offset="0.633" stop-color="#000827"/><stop offset="0.762" stop-color="#000311"/><stop offset="0.886" stop-color="#000004"/><stop offset="1"/></radialGradient><linearGradient id="d" x1="-21.059" y1="-6.184" x2="-18.726" y2="-6.184" xlink:href="#a"/><linearGradient id="e" x1="-7.887" y1="-9.047" x2="-6.873" y2="-9.047" xlink:href="#a"/><radialGradient id="f" cx="0.5" cy="0.5" r="0.5" gradientTransform="matrix(0.675, 0.738, -0.738, 0.675, -1.475, -2.373)" xlink:href="#c"/></defs><g transform="translate(27.239 -1491.971)"><g transform="translate(-150.689 1469.23)"><g transform="translate(123.45 293.946)"><path class="a" d="M253.837,146.667,246.819,124.5l6.17-5.411,25.611,3.469,1.67,14.954-17.65,12.48Z" transform="translate(-242.881 -119.088)"/><path class="b" d="M249.756,126.563l1.25,12.9,8.784,3.324,17.65-12.48Z" transform="translate(-240.05 -111.884)"/><path class="c" d="M254.866,148.288l2.343-6.276,13.637-21.157,1.67,14.954Z" transform="translate(-235.126 -117.386)"/><path class="d" d="M259.176,139.586l2.343-6.276-9.248-3.426-1.878,6.379Z" transform="translate(-239.437 -108.684)"/><path class="e" d="M255.715,140.288l-2.725-21.2-6.17,5.411,7.017,22.168Z" transform="translate(-242.881 -119.088)"/><path class="f" d="M246.819,124.5l5.768,9.267,27.683,3.744-1.67-14.954-25.611-3.469Z" transform="translate(-242.881 -119.088)"/><path class="g" d="M260.206,128.309l-1.768,3.413,2.5.3,2.789-3.29Z" transform="translate(-231.682 -110.201)"/><path class="h" d="M252.587,131.111l1.25,12.9-7.017-22.168Z" transform="translate(-242.881 -116.432)"/><path class="i" d="M286.1,132.078A21.717,21.717,0,1,1,257.1,121.953,21.718,21.718,0,0,1,286.1,132.078Z" transform="translate(-244.814 -118.41)"/></g><g transform="translate(241.171 22.741)"><path class="a" d="M262.982,31.381l-4.493,24.738,17.5,29.706,11.859,2.544,7.782-21.222L266.688,30.63Z" transform="translate(-224.481 -15.138)"/><path class="d" d="M275.985,74.7l11.859,2.544L266.927,42.174l-8.438,2.819Z" transform="translate(-224.481 -4.013)"/><path class="j" d="M266.927,53.3l-.239-22.669-3.706.751-4.493,24.738Z" transform="translate(-224.481 -15.138)"/><path class="k" d="M268.867,53.289l18.172-4.064-7.782,21.222L267.4,67.9Z" transform="translate(-215.894 2.783)"/><path class="l" d="M264.483,30.63l-3.706.751,1.5,22.356,13.082,19.446,18.063-6.036Z" transform="translate(-222.276 -15.138)"/><path class="h" d="M274.22,70.447,272.625,63.6,282,49.225Z" transform="translate(-210.856 2.783)"/><path class="h" d="M264.481,53.368l-5.992,2.382,4.493-24.738Z" transform="translate(-224.481 -14.77)"/><circle class="m" cx="36.103" cy="36.103" r="36.103" transform="translate(0 34.225) rotate(-28.294)"/></g></g><g transform="translate(1711.788 1494.229)"><g transform="translate(123.45 293.946)"><path class="a" d="M253.837,146.667,246.819,124.5l6.17-5.411,25.611,3.469,1.67,14.954-17.65,12.48Z" transform="translate(-242.881 -119.088)"/><path class="b" d="M249.756,126.563l1.25,12.9,8.784,3.324,17.65-12.48Z" transform="translate(-240.05 -111.884)"/><path class="c" d="M254.866,148.288l2.343-6.276,13.637-21.157,1.67,14.954Z" transform="translate(-235.126 -117.386)"/><path class="d" d="M259.176,139.586l2.343-6.276-9.248-3.426-1.878,6.379Z" transform="translate(-239.437 -108.684)"/><path class="e" d="M255.715,140.288l-2.725-21.2-6.17,5.411,7.017,22.168Z" transform="translate(-242.881 -119.088)"/><path class="f" d="M246.819,124.5l5.768,9.267,27.683,3.744-1.67-14.954-25.611-3.469Z" transform="translate(-242.881 -119.088)"/><path class="g" d="M260.206,128.309l-1.768,3.413,2.5.3,2.789-3.29Z" transform="translate(-231.682 -110.201)"/><path class="h" d="M252.587,131.111l1.25,12.9-7.017-22.168Z" transform="translate(-242.881 -116.432)"/><path class="i" d="M286.1,132.078A21.717,21.717,0,1,1,257.1,121.953,21.718,21.718,0,0,1,286.1,132.078Z" transform="translate(-244.814 -118.41)"/></g></g></g></svg>