<svg xmlns="http://www.w3.org/2000/svg" xmlns:xlink="http://www.w3.org/1999/xlink" width="723.708" height="723.668" viewBox="0 0 723.708 723.668"><defs><style>.a{mix-blend-mode:luminosity;}.a,.c,.d,.e,.f,.h{isolation:isolate;}.b{fill:url(#a);}.c{fill:#974d8b;opacity:0.3;}.c,.e{mix-blend-mode:multiply;}.d,.i{fill:#5fcccc;}.d,.h{opacity:0.51;}.d,.f,.h{mix-blend-mode:soft-light;}.e{fill:#190024;}.e,.f{opacity:0.1;}.g{fill:#e9e9a8;}</style><radialGradient id="a" cx="0.412" cy="0.965" r="0.977" gradientTransform="translate(0)" gradientUnits="objectBoundingBox"><stop offset="0.593" stop-color="#1622a0"/><stop offset="1" stop-color="#5757e8"/></radialGradient></defs><g class="a" transform="translate(0 144.433) rotate(-14)"><path class="b" d="M2065.207,847.606a300.085,300.085,0,0,1-35.156,132.416c-.86,1.676-1.769,3.353-2.729,4.983a295.206,295.206,0,0,1-73.665,87.184,289.852,289.852,0,0,1-28.295,20.1,297.963,297.963,0,0,1-66.759,31.126h-.045c-1.677.577-3.261,1.1-4.937,1.585A298.764,298.764,0,0,1,1469.335,864.25c-.192-1.823-.283-3.691-.429-5.514a297.658,297.658,0,0,1,18.75-124.786c1.438-3.746,2.976-7.483,4.506-11.221a302.5,302.5,0,0,1,29.972-54.191,280.274,280.274,0,0,1,17.99-23.165c1.008-1.246,2.061-2.5,3.161-3.692a295.033,295.033,0,0,1,63.35-53.952c1.685-1.109,3.315-2.116,4.991-3.078,4.554-2.822,9.206-5.459,13.906-8.006,1.493-.769,2.931-1.585,4.414-2.3a298.362,298.362,0,0,1,363.9,71.5c1.685,1.914,3.316,3.884,4.846,5.853a294.772,294.772,0,0,1,22.257,31.363c1.247,2.061,2.492,4.122,3.692,6.229a298.515,298.515,0,0,1,29.056,68.1c.485,1.631.916,3.261,1.347,4.846a297.068,297.068,0,0,1,9.884,63.111C2065.3,832.74,2065.4,840.122,2065.207,847.606Z" transform="translate(-1468.28 -541.031)"/><path class="c" d="M2058.452,706.268s-137.151,10.6-165.3-39.315C1865.068,617,1836.47,604.5,1791.715,609.786c-44.71,5.294-101.016,41.275-155.353,26.729-54.317-14.582-157.615-71.429-157.615-71.429-8.893,27.452-10.46,78.794-10.46,78.794s24.22,86.057,92.323,91.306,221.442,29.009,322.228,58.605c100.759,29.532,128.314,20.775,128.314,20.775C2049.9,760.5,2058.452,706.268,2058.452,706.268ZM1567.984,708.9c-7.091-17.6,38.206-19.694,47.083-6.962C1623.9,714.658,1582.951,746.2,1567.984,708.9Zm191.891-80.388c42.429-17.285,116.991,13.721,109.9,41.549S1727.092,641.855,1759.875,628.509Zm85.416,142.519c-1.2-24.75,28.928-8.7,35.99,4.224S1846.243,791.025,1845.291,771.028Zm131.785-.576c.806-13.383,19.814-13.887,19.491.5C1996.238,785.391,1976.691,777.285,1977.076,770.451Z" transform="translate(-1468.22 -344.742)"/><path class="d" d="M2043.9,734s-98.312-61.628-176.08-77.383C1790,640.882,1704.064,689.7,1604.559,672.594c-51.506-8.858-99.458-37.7-133.671-63.451a299.3,299.3,0,0,1,29.982-54.19c18.136,18.182,68.332,65.512,115.25,82.586,58.6,21.288,112.63-1.868,211.328,3.811,84.5,4.873,188.219,55.875,216.2,70.412C2044.043,719.136,2044.108,726.546,2043.9,734Z" transform="translate(-1446.998 -427.427)"/><path class="d" d="M1574.263,645.979c-11.331,7.869-39.159-.7-36.768-6.21C1542.094,629.354,1585.593,638.11,1574.263,645.979Zm21.516-16.222c4.2-6.1,29.478-1.621,28,2.281C1622.279,635.876,1591.942,635.28,1595.779,629.757Zm283.014,79.728c8.374-9.4,53.23,8.528,50.874,19.227S1870.422,718.874,1878.793,709.485Zm-207.82-71.8c-112.493-22.231-174.862-43.454-200.959-53.622a297.016,297.016,0,0,0,42.5,81.486c47.815.751,94.174-41.6,222.623-1.914a854.279,854.279,0,0,1,176.08,77.539,292.685,292.685,0,0,0,28.3-20.06C1892.277,701.35,1786.48,660.479,1670.973,637.68Z" transform="translate(-1454.128 -189.932)"/><path class="e" d="M1485.771,565.036c-2.245,10.827,41.182,30.951,49.49,18.713S1490.46,542.457,1485.771,565.036Z" transform="translate(-1326.231 -413.255)"/><path class="e" d="M1487.444,564.548c1.8,8.6,11.826,8.738,13.035,4.928S1485.639,555.956,1487.444,564.548Z" transform="translate(-1313.055 -377.253)"/><path class="e" d="M1514.952,579.3c12.064-12.228,17.634-5.294,20.419,1.1S1511.2,583.12,1514.952,579.3Z" transform="translate(-1090.37 -283.734)"/><path class="e" d="M1515.475,568.342c12.064-12.238,17.624-5.294,20.409,1.1S1511.711,572.162,1515.475,568.342Z" transform="translate(-1086.12 -373.18)"/><path class="e" d="M1497.467,603.585c12.063-12.228,17.633-5.294,20.418,1.1S1493.71,607.4,1497.467,603.585Z" transform="translate(-1233.054 -85.571)"/><path class="e" d="M1521.179,583.526c1.438,6.21,12.264,7.374,11.578.293S1518.752,573,1521.179,583.526Z" transform="translate(-1039.035 -247.611)"/><path class="e" d="M1496.686,555.636c1.438,6.21,12.266,7.373,11.579.293S1494.258,545.1,1496.686,555.636Z" transform="translate(-1238.896 -475.228)"/><path class="d" d="M1537.252,594.294c4.709,1.3,21.5,12.612,20.684,22.56s-42.4,1.273-40.91-7.777S1530.732,592.5,1537.252,594.294Z" transform="translate(-1070.827 -108.587)"/><path class="d" d="M1538.387,562.536c4.719,1.3,21.508,12.613,20.692,22.561s-42.4,1.273-40.908-7.777S1531.876,560.741,1538.387,562.536Z" transform="translate(-1061.484 -367.721)"/><path class="d" d="M1530.509,559.1c1.164,4.745-.5,24.924-9.582,29.074s-21.828-36.374-13.2-39.489S1528.887,552.528,1530.509,559.1Z" transform="translate(-1169.762 -484.862)"/><g class="f" transform="translate(410.41 55.108)"><path class="g" d="M1525.989,573.153a31.455,31.455,0,0,0,.468-14.243,5.389,5.389,0,0,0-.788-2.162,4.47,4.47,0,0,0-4.012-1.511,9.2,9.2,0,0,0-7.86,6.659,11.407,11.407,0,0,0,2.447,10.25,7.709,7.709,0,0,0,5.084,2.94,4.32,4.32,0,0,0,4.57-3.078.93.93,0,0,0-1.537.284Z" transform="translate(-1510.304 -480.363)"/><path class="g" d="M1529.907,566.823a8.167,8.167,0,0,0-2.51-7.474c-2.592.9-4.991,2.821-5.7,5.468s.871,5.908,3.565,6.393,5.4-2.9,3.891-5.193Z" transform="translate(-1444.14 -446.664)"/><path class="g" d="M1525.367,559.941a9.252,9.252,0,0,0-1.146-2.528.576.576,0,0,0-.238-.229.424.424,0,0,0-.348.055c-.842.476-.953,1.979-1.915,2.025-.173.01-.366-.036-.5.064-.24.165-.092.541.1.751a2.532,2.532,0,0,0,3.873-.467l.073.412Z" transform="translate(-1447.732 -464.485)"/><path class="g" d="M1526.622,559.591a17.742,17.742,0,0,0-2.171-4.763.988.988,0,0,0-.448-.439.846.846,0,0,0-.66.11c-1.575.9-1.795,3.728-3.6,3.81-.33.009-.7-.073-.961.119-.441.321-.167,1.026.2,1.429a4.789,4.789,0,0,0,7.309-.9l.137.788Z" transform="translate(-1468.437 -487.384)"/><path class="g" d="M1531.783,558.327a17.8,17.8,0,0,0-2.171-4.764.944.944,0,0,0-.449-.439.83.83,0,0,0-.651.109c-1.583.9-1.795,3.729-3.608,3.811-.33.009-.688-.073-.953.119-.441.32-.175,1.026.2,1.42a4.776,4.776,0,0,0,7.3-.888l.139.788Z" transform="translate(-1426.277 -497.697)"/><path class="g" d="M1524.347,558.889a1.843,1.843,0,1,0-2.272-2.272,1.471,1.471,0,0,0,.073,1.613c.513.586,1.448.458,2.208.274l-.328.549Z" transform="translate(-1441.391 -479.116)"/><path class="g" d="M1525.075,556.6a1.638,1.638,0,0,0-.512-.915,1.858,1.858,0,0,0-1-.2,14.545,14.545,0,0,1-2.821-.274l2.977,3.664a.855.855,0,0,1,.194.321c.127.412-.349.76-.478,1.181-.183.6.4,1.172.961,1.475C1528.382,564.026,1525.653,558.466,1525.075,556.6Z" transform="translate(-1450.593 -480.478)"/><path class="g" d="M1520.177,554.761a1.652,1.652,0,0,0-.522-.915,1.757,1.757,0,0,0-1-.2,16.263,16.263,0,0,1-2.82-.275c1,1.218,1.986,2.445,2.985,3.664a.915.915,0,0,1,.191.32c.121.412-.346.76-.476,1.172-.183.614.394,1.181.953,1.484C1523.475,562.189,1520.745,556.629,1520.177,554.761Z" transform="translate(-1490.634 -495.46)"/><path class="g" d="M1524.169,553.336l-.816-1.118a2.221,2.221,0,0,0-.777,2.455c.374.843,1.758,1.108,2.216.3.284-.494.532-1.383,1.027-1.09Z" transform="translate(-1436.716 -504.852)"/><path class="g" d="M1518.36,553.932a1.877,1.877,0,1,1,0-.165Z" transform="translate(-1500.056 -506.474)"/><path class="g" d="M1519.1,553.8c.805.632,1.7,1.658,1.2,2.556-.5.861-1.768.669-2.711.357-.4-.128-.87-.329-.963-.742-.229-1.016,1.877-1.191,1.877-2.226.248-.165.578.284.358.476Z" transform="translate(-1484.31 -492.701)"/><path class="g" d="M1529.284,565.091a4.849,4.849,0,0,0-2.411-3.655c-1.382-.623-3.388.211-3.452,1.731a1.9,1.9,0,0,0,.4,1.237,2.936,2.936,0,0,0,.577.531,4.1,4.1,0,0,0,2.831.989,1.982,1.982,0,0,0,1.795-2.089Z" transform="translate(-1428.75 -431.329)"/><path class="g" d="M1531.714,563.628a2.09,2.09,0,0,0-1.2.549,5.2,5.2,0,0,0-.54,1.228c-.449.952-1.585,1.355-2.262,2.162-1.172,1.4-.643,3.5-.046,5.23.137.4.339.862.751.962a1.627,1.627,0,0,0,.889-.2c2.052-.8,3.353,1.154,5.259.916a5.977,5.977,0,0,0,4-3.38C1539.9,566.852,1535.7,562.748,1531.714,563.628Z" transform="translate(-1399.424 -412.728)"/><path class="g" d="M1524.327,561.212a1.846,1.846,0,0,1,.558,1,3.253,3.253,0,0,1-2.409-1.558c-.338-.439-.678-1.035-.394-1.511.2-.33.624-.44.924-.687.605-.476.9-1.538,1.668-1.465a.96.96,0,0,1,.743.943,2.753,2.753,0,0,1-.358,1.246c-.4.871-.806,1.731-1.217,2.593Z" transform="translate(-1440.528 -465.948)"/><path class="g" d="M1522.947,559.23c-.01-.806-1.338-.925-1.8-.274a2.931,2.931,0,0,0-.121,2.336,2.826,2.826,0,0,0,2.4-2Z" transform="translate(-1449.792 -453.287)"/><path class="g" d="M1524.609,558.7a3.011,3.011,0,0,0-.439-1.09.984.984,0,0,0-1.027-.4c-.614.2-.7,1.054-1.154,1.512s-1.291.495-1.575,1.081.276,1.282.906,1.4a2.808,2.808,0,0,0,1.815-.494,3.055,3.055,0,0,0,1.273-1.108,1.23,1.23,0,0,0-.211-1.557Z" transform="translate(-1453.873 -464.45)"/><path class="g" d="M1522.351,558.285a.727.727,0,0,1-.851.55,1.325,1.325,0,0,1-.871-.669,1.242,1.242,0,0,1-.221-.614.946.946,0,0,1,.99-.934,1,1,0,0,1,.889,1.053,1.1,1.1,0,0,1-1.017.971Z" transform="translate(-1453.328 -468.976)"/><path class="g" d="M1516.536,559.425a.727.727,0,0,1-.852.549,1.337,1.337,0,0,1-.86-.669,1.3,1.3,0,0,1-.22-.623.941.941,0,0,1,.979-.934,1.023,1.023,0,0,1,.9,1.062,1.087,1.087,0,0,1-1.017.962Z" transform="translate(-1500.697 -459.738)"/><path class="g" d="M1521.841,558.242a1.125,1.125,0,0,0,.558-1.851,2.05,2.05,0,0,0-1.1.559.972.972,0,0,0-.11,1.154.633.633,0,0,0,1.035-.055Z" transform="translate(-1448.111 -470.801)"/><path class="g" d="M1515.954,551.867a1.121,1.121,0,0,0,.558-1.841,1.935,1.935,0,0,0-1.1.55.942.942,0,0,0-.111,1.154.634.634,0,0,0,1.035-.055Z" transform="translate(-1496.212 -522.739)"/><path class="g" d="M1516.036,556.8a3.188,3.188,0,0,0,.074-2.785l-2.052,1.172a2.121,2.121,0,0,0-.842.706,1.265,1.265,0,0,0,.777,1.732,1.8,1.8,0,0,0,1.9-.77Z" transform="translate(-1513.085 -490.221)"/><path class="g" d="M1516.477,555.326l2.429,3.527c-.368.632-1.329.182-1.879-.3a3.777,3.777,0,0,1-1.283-1.732c-.174-.714.257-1.621.989-1.639Z" transform="translate(-1491.696 -480.69)"/><path class="g" d="M1529.629,561.213a1.528,1.528,0,0,0-.741-2.446,2.242,2.242,0,0,0-2.465,1.466,1.652,1.652,0,0,0-.016,1.319,1.576,1.576,0,0,0,1.795.687,4.644,4.644,0,0,0,1.777-1.036Z" transform="translate(-1405.446 -451.825)"/><path class="g" d="M1518.179,555.639a2.434,2.434,0,0,0,.548-2.693,2.9,2.9,0,0,0-1.859.852,1.954,1.954,0,0,0-.349,2.51c.586.715,2.071.376,2.052-.549Z" transform="translate(-1487.672 -498.912)"/><path class="g" d="M1518.257,555.251a1.465,1.465,0,0,1-1.164,1.393l-1.237-1.786a1.678,1.678,0,0,1,2.594-.146Z" transform="translate(-1490.471 -488.952)"/><path class="g" d="M1526.966,565.034c-.677.915-1.355,1.832-2.024,2.748a1.945,1.945,0,0,0-.431.852,2.034,2.034,0,0,0,.2.971c.457,1.127,1.219,2.454,2.428,2.372,1.309-.082,1.823-1.686,2.391-2.867,1.061-2.226,6.759-5.844,4.635-8.73C1531.913,557.322,1528.194,563.358,1526.966,565.034Z" transform="translate(-1419.921 -445.195)"/><path class="g" d="M1528.545,559.434l.641.586a4.5,4.5,0,0,1-1.915.559,1.573,1.573,0,0,1-1.557-1.026c-.173-.651.485-1.429,1.117-1.2a3.549,3.549,0,0,1,1.64,1.136Z" transform="translate(-1410.26 -455.129)"/><path class="g" d="M1522.644,558.335a1.434,1.434,0,0,1-2.556.633c-.229-.3-.274-.825.066-1a.88.88,0,0,1,.466-.055l2.107.165-.091.357Z" transform="translate(-1457.406 -458.427)"/><path class="g" d="M1522.59,560.13c-.641-.257-1.309.293-1.758.825s-1,1.135-1.686,1.044a.6.6,0,0,1-.467-.284c-.228-.439.338-.824.632-1.218a5.228,5.228,0,0,0,.449-1.072,2.311,2.311,0,0,1,2.235-1.346,1.29,1.29,0,0,1,.6,1.264,1.315,1.315,0,0,1-.926,1.062Z" transform="translate(-1467.866 -457.081)"/><path class="g" d="M1520.033,558.222l-.32-.733a.968.968,0,0,0-.981.705.8.8,0,0,0,.658.953.688.688,0,0,0,.706-.852Z" transform="translate(-1467.16 -461.859)"/><path class="g" d="M1518,558.054l-.321-.733a.977.977,0,0,0-.98.705.808.808,0,0,0,.66.962.7.7,0,0,0,.706-.861Z" transform="translate(-1483.773 -463.22)"/><path class="g" d="M1522.829,556.528c-.065.513.632.825,1.136.669s.878-.559,1.355-.761a1.842,1.842,0,0,1,1.567.046.891.891,0,0,1,.55.7,1.063,1.063,0,0,1-.2.587,5.6,5.6,0,0,1-2.069,2.235,2.619,2.619,0,0,1-2.9-.156,2.014,2.014,0,0,1,.7-3.453Z" transform="translate(-1443.885 -471.68)"/><path class="g" d="M1515.21,547.285c-.074.522.632.825,1.126.669a15.234,15.234,0,0,0,1.366-.761,1.884,1.884,0,0,1,1.557.046.9.9,0,0,1,.558.7,1.116,1.116,0,0,1-.2.586,5.6,5.6,0,0,1-2.068,2.235,2.65,2.65,0,0,1-2.9-.147,2.026,2.026,0,0,1,.7-3.462Z" transform="translate(-1506.084 -547.047)"/><path class="g" d="M1524.818,556.408a1.261,1.261,0,0,0-.733-1.585,1.807,1.807,0,0,0-1.8.394c-.219.183-.4.5-.256.742a.749.749,0,0,0,.514.257l2.363.421Z" transform="translate(-1440.563 -484.42)"/><path class="g" d="M1518.291,554.642a6.4,6.4,0,0,0,3.9-2.95,1.056,1.056,0,0,0,.183-.815c-.191-.614-1.081-.458-1.722-.486-1.1-.036-2.006-.961-3.106-1a3.967,3.967,0,0,0-2.381,1.09c-1.027.788-2.153,2.125-1.44,3.2a2.408,2.408,0,0,0,1.76.815,12.689,12.689,0,0,0,4.2-.183Z" transform="translate(-1509.668 -527.913)"/><path class="g" d="M1522.552,555.771c1.007.156,1.456-1.2,1.511-2.216a2.063,2.063,0,0,0-.458-1.777c-.668-.541-1.649-.073-2.354.4l-1.86,1.236c-.276.183-.585.4-.622.732a1.1,1.1,0,0,0,.347.779,10.255,10.255,0,0,0,3.472,2.683Z" transform="translate(-1466.729 -510.42)"/><path class="g" d="M1521.579,566.563c8.756,2.336,10.543-8.134,3.736-11.844C1518.179,550.836,1513.958,564.539,1521.579,566.563Z" transform="translate(-1476.812 -490.068)"/><path class="g" d="M1525.281,560.489a2.123,2.123,0,0,1-3.362.155,5.292,5.292,0,0,1,2.326-1.933,1.831,1.831,0,0,1,2.4,1.218l-1,1.493Z" transform="translate(-1440.998 -452.603)"/><path class="g" d="M1527.855,562.313l-.87-1.181a12.557,12.557,0,0,1-4.488,2.473,12.508,12.508,0,0,0-2.455.852,2.549,2.549,0,0,0-1.42,2.033c-.018,1.612,2.024,2.419,3.637,2.317a7,7,0,0,0,5.275-2.665,4.856,4.856,0,0,0,.064-5.7c-.56.366-1.118.742-1.678,1.108Z" transform="translate(-1467.901 -437.72)"/><path class="g" d="M1526.676,560.067c.4-.549-.083-.833-.743-.632a7.411,7.411,0,0,0-2.024,1.145l-4.379,3.078c-.824.577-1.777,1.319-1.923,1.923-.129.532.485.669,1.2.468a9.86,9.86,0,0,0,2.234-1.1c2.465-1.475,5.331-3.536,5.881-5.322l-1.42.312Z" transform="translate(-1476.329 -446.493)"/><path class="g" d="M1519.681,560.191a.557.557,0,0,1-.623.495,1.332,1.332,0,0,1-.759-.449,1.625,1.625,0,0,1-.395-.605,1.07,1.07,0,0,1,.558-1.208,1.339,1.339,0,0,1,1.366.137.855.855,0,0,1,.385.559.475.475,0,0,1-.339.54Z" transform="translate(-1474.053 -455.264)"/><path class="g" d="M1521.966,556.988a18.862,18.862,0,0,0,2.463-3.124,1.221,1.221,0,0,0-.917-.477,3.564,3.564,0,0,0-3.811,3.527,1.132,1.132,0,0,0,.276.8.949.949,0,0,0,1.081.092,2.771,2.771,0,0,0,.843-.788Z" transform="translate(-1459.107 -495.469)"/><path class="g" d="M1521.887,556.713l-.376-.751a1.79,1.79,0,0,0-1.054.687c-.2.376.066.989.486.916a.942.942,0,0,0,.413-.238l1.162-1.026Z" transform="translate(-1453.477 -474.301)"/><path class="g" d="M1516.812,555.335a5.025,5.025,0,0,0-.385-2,1.724,1.724,0,0,0-1.622-1.035,1.516,1.516,0,0,0-.886.458,1.891,1.891,0,1,0,2.82,2.51Z" transform="translate(-1510.518 -504.214)"/><path class="g" d="M1518.151,549.8a1.389,1.389,0,0,1-.816,2.216,4,4,0,0,1-1.2-1.081,2.421,2.421,0,0,1,1.521-.889Z" transform="translate(-1488.194 -524.574)"/><path class="g" d="M1518.344,552.085c.33-.5-.715-.989-1.062-.494a1.26,1.26,0,0,0,.421,1.594,1.3,1.3,0,0,0,.641-1.411Z" transform="translate(-1480.09 -511.653)"/><path class="g" d="M1524.29,561.827l-.834-1.118a2.606,2.606,0,0,0-.87.605,1.316,1.316,0,0,0,1.62.879Z" transform="translate(-1435.554 -435.566)"/><path class="g" d="M1537.176,560.816l-.824-1.126a2.52,2.52,0,0,0-.87.6,1.31,1.31,0,0,0,1.611.88Z" transform="translate(-1330.324 -443.881)"/><path class="g" d="M1532.393,559.053a4.87,4.87,0,0,1,1.649,4.388.907.907,0,0,1-.239.541,1.006,1.006,0,0,1-.878.11c-1.777-.339-3.929-1.045-4.214-2.83a2.334,2.334,0,0,1,3.023-2.4l.413,1.438Z" transform="translate(-1385.759 -451.736)"/><path class="g" d="M1533.579,581.309a8.133,8.133,0,0,0-2.5-7.475c-2.594.9-4.993,2.822-5.7,5.469s.861,5.908,3.565,6.384,5.394-2.894,3.883-5.184Z" transform="translate(-1414.13 -328.467)"/><path class="g" d="M1529.048,574.426a9.646,9.646,0,0,0-1.145-2.528.558.558,0,0,0-.248-.229.411.411,0,0,0-.34.055c-.842.476-.953,1.979-1.914,2.025-.173.009-.366-.037-.513.064-.228.165-.09.541.11.751a2.534,2.534,0,0,0,3.874-.467l.074.412Z" transform="translate(-1417.725 -346.289)"/><path class="g" d="M1535.466,572.815a17.78,17.78,0,0,0-2.171-4.763.993.993,0,0,0-.448-.439.786.786,0,0,0-.652.109c-1.583.889-1.795,3.728-3.607,3.81-.33.009-.7-.073-.961.119-.441.321-.167,1.026.2,1.42a4.789,4.789,0,0,0,7.311-.889l.137.788Z" transform="translate(-1396.271 -379.504)"/><path class="g" d="M1528.016,573.375a1.844,1.844,0,1,0-2.262-2.272,1.465,1.465,0,0,0,.073,1.612c.514.586,1.448.458,2.208.275l-.34.55Z" transform="translate(-1411.38 -360.919)"/><path class="g" d="M1528.755,571.082a1.65,1.65,0,0,0-.523-.916,1.737,1.737,0,0,0-1-.2,15.233,15.233,0,0,1-2.814-.275c.991,1.219,1.978,2.446,2.977,3.665a.822.822,0,0,1,.193.32c.119.412-.348.76-.477,1.182-.183.6.4,1.172.952,1.474C1532.06,578.511,1529.323,572.951,1528.755,571.082Z" transform="translate(-1420.581 -362.282)"/><path class="g" d="M1527.852,567.82l-.817-1.117a2.207,2.207,0,0,0-.778,2.455c.375.842,1.758,1.1,2.217.3.284-.495.532-1.383,1.016-1.09Z" transform="translate(-1406.708 -386.655)"/><path class="g" d="M1532.962,579.576a4.836,4.836,0,0,0-2.409-3.655c-1.384-.623-3.39.21-3.454,1.731a1.843,1.843,0,0,0,.394,1.228,3.258,3.258,0,0,0,.576.54,4.062,4.062,0,0,0,2.84.98,1.973,1.973,0,0,0,1.794-2.079Z" transform="translate(-1398.739 -313.132)"/><path class="g" d="M1528,575.7a1.918,1.918,0,0,1,.558,1,3.225,3.225,0,0,1-2.409-1.566c-.338-.431-.677-1.026-.393-1.5.192-.33.613-.449.915-.687.606-.477.9-1.538,1.667-1.465a.95.95,0,0,1,.751.943,2.755,2.755,0,0,1-.358,1.246l-1.217,2.592Z" transform="translate(-1410.517 -347.752)"/><path class="g" d="M1525.527,572.717a1.121,1.121,0,0,0,.558-1.842,2.009,2.009,0,0,0-1.1.559.933.933,0,0,0-.111,1.145.631.631,0,0,0,1.037-.046Z" transform="translate(-1418.105 -352.604)"/><path class="g" d="M1533.308,575.7a1.525,1.525,0,0,0-.749-2.446,2.236,2.236,0,0,0-2.455,1.466,1.7,1.7,0,0,0-.028,1.319,1.608,1.608,0,0,0,1.8.687,4.735,4.735,0,0,0,1.778-1.035Z" transform="translate(-1375.435 -333.628)"/><path class="g" d="M1530.644,579.519l-2.016,2.748a1.962,1.962,0,0,0-.439.852,1.921,1.921,0,0,0,.211.971c.458,1.126,1.209,2.455,2.418,2.372,1.319-.083,1.833-1.685,2.4-2.876,1.061-2.226,6.759-5.835,4.634-8.72C1535.59,571.806,1531.881,577.843,1530.644,579.519Z" transform="translate(-1389.917 -326.998)"/><path class="g" d="M1532.223,573.918l.641.586a4.534,4.534,0,0,1-1.915.559,1.577,1.577,0,0,1-1.557-1.026c-.174-.65.487-1.429,1.109-1.2a3.469,3.469,0,0,1,1.648,1.135Z" transform="translate(-1380.248 -336.932)"/><path class="g" d="M1526.51,571.014c-.073.513.632.825,1.128.669a13.21,13.21,0,0,0,1.364-.769,1.85,1.85,0,0,1,1.557.055.9.9,0,0,1,.56.7,1.166,1.166,0,0,1-.2.586,5.614,5.614,0,0,1-2.07,2.235,2.651,2.651,0,0,1-2.9-.156,2.02,2.02,0,0,1,.705-3.453Z" transform="translate(-1413.878 -353.484)"/><path class="g" d="M1528.49,570.893a1.254,1.254,0,0,0-.723-1.585,1.8,1.8,0,0,0-1.8.394c-.22.183-.411.495-.256.742a.687.687,0,0,0,.513.248l2.363.431Z" transform="translate(-1410.554 -366.223)"/><path class="g" d="M1528.957,574.973a2.122,2.122,0,0,1-3.362.156,5.315,5.315,0,0,1,2.327-1.932,1.826,1.826,0,0,1,2.4,1.218l-.989,1.493Z" transform="translate(-1410.994 -334.406)"/><path class="g" d="M1527.958,576.312l-.824-1.118a2.529,2.529,0,0,0-.87.6,1.31,1.31,0,0,0,1.611.879Z" transform="translate(-1405.542 -317.37)"/><path class="g" d="M1536.072,573.545a4.842,4.842,0,0,1,1.64,4.379.894.894,0,0,1-.228.55,1.023,1.023,0,0,1-.888.11c-1.776-.338-3.921-1.044-4.2-2.83a2.332,2.332,0,0,1,3.013-2.409l.423,1.447Z" transform="translate(-1355.748 -333.546)"/><path class="g" d="M1525.905,568.468a4.842,4.842,0,0,1,1.64,4.379.905.905,0,0,1-.23.549.993.993,0,0,1-.888.1c-1.778-.339-3.921-1.035-4.2-2.821a2.333,2.333,0,0,1,3.014-2.409l.421,1.448Z" transform="translate(-1438.727 -374.982)"/></g><g class="h" transform="translate(71.844 43.621)"><path class="i" d="M1494.513,553.707c-3.691-1.63-7.383-3.26-11.129-4.836,1.685-1.109,3.316-2.116,4.991-3.078,2.686,1.154,5.369,2.308,8.052,3.508l5.854,2.583a930.3,930.3,0,0,0,261.9,71.319c9.875,1.2,19.806,2.253,29.734,3.261,23.98,2.492,48.823,5.084,72.9,9.92a308.626,308.626,0,0,1,30.886,7.822c1.247,2.061,2.491,4.122,3.692,6.229a308.52,308.52,0,0,0-35.541-9.343c-23.879-4.8-48.529-7.392-72.417-9.838-9.977-1.053-19.9-2.061-29.826-3.26a934.656,934.656,0,0,1-263.237-71.741Z" transform="translate(-1416.874 -545.793)"/><path class="i" d="M1991.039,672.583c-23.643-1.585-46.422-9.737-68.535-17.7-4.4-1.585-8.821-3.169-13.237-4.7-59.7-20.766-117.686-30.311-172.4-28.488-11.9.431-23.981,1.393-35.686,2.3-18.128,1.484-36.833,2.977-55.344,2.446a260.318,260.318,0,0,1-152.789-55.436,153.529,153.529,0,0,1-16.927-15.3c1.008-1.246,2.061-2.5,3.16-3.692a147.5,147.5,0,0,0,16.735,15.242,255.557,255.557,0,0,0,149.966,54.392c18.228.522,36.832-.961,54.813-2.4,11.752-.962,23.936-1.924,35.926-2.3,55.243-1.923,113.848,7.768,174.13,28.671,4.415,1.539,8.829,3.124,13.281,4.755,21.3,7.62,43.162,15.489,65.558,17.357C1990.178,669.367,1990.608,671,1991.039,672.583Z" transform="translate(-1476.123 -494.99)"/></g><g class="h" transform="translate(0.625 313.573)"><path class="i" d="M2029.494,700.681c-.86,1.677-1.769,3.353-2.729,4.983-3.217.238-6.431.476-9.591.623-23.257,1.008-54.336-2.491-70.549-24.988a106.6,106.6,0,0,1-8.344-14.959c-4.361-9.068-8.483-17.606-16.453-22.2-6.465-3.692-14.187-3.792-19.51-3.17-13,1.493-24.512,7.63-36.694,14.106-9.829,5.221-19.951,10.644-30.932,13.374-16.5,4.076-34.048,1.923-49.584,0l-1.776-.238q-53.023-6.54-106.035-13.282c-6.33-.815-13.521-1.731-19.567-5.468-5.8-3.545-11.074-11.029-8.968-18.943,1.155-4.268,4.031-7.337,6.815-10.314a33.729,33.729,0,0,0,4.645-5.661c4.323-7.282,1.154-17.019-4.022-22.442-5.084-5.368-12.906-8.968-23.266-10.744-22.059-3.738-44.792,1.3-66.758,6.146-19.227,4.269-39.131,8.675-59.127,7.429a105.937,105.937,0,0,1-38.27-10.021c-.192-1.823-.284-3.692-.43-5.514a101.769,101.769,0,0,0,39.039,10.744c19.272,1.246,38.838-3.123,57.78-7.292,22.4-4.992,45.561-10.121,68.535-6.191,11.413,1.923,20.143,6.045,25.951,12.137,6.567,6.861,10.258,18.75,4.7,28.2a38.992,38.992,0,0,1-5.275,6.467c-2.5,2.683-4.846,5.184-5.661,8.253-1.438,5.322,2.4,10.882,6.861,13.667,5.175,3.215,11.8,4.076,17.6,4.8,35.349,4.552,70.686,8.913,106.08,13.282l1.732.238c15.819,1.969,32.225,3.976,47.861.092,10.405-2.584,20.28-7.859,29.824-12.943,12.037-6.43,24.512-13.044,38.417-14.628,8.683-1.008,16.405.284,22.441,3.792,9.26,5.322,13.914,14.912,18.42,24.219a94.632,94.632,0,0,0,7.859,14.244c14.967,20.812,44.407,23.972,66.428,23.019C2021.1,701.3,2025.326,701.011,2029.494,700.681Z" transform="translate(-1468.348 -575.264)"/></g><g class="h" transform="translate(85.647 472.927)"><path class="i" d="M1782.261,702.114c-1.677.577-3.26,1.1-4.937,1.585-4.7-5.9-8.446-12.522-12.036-19-.917-1.63-1.878-3.26-2.786-4.891-18.42-31.986-41.96-55.436-68.149-67.9-30.165-14.289-64.834-15.206-97.829-14.1-38.9,1.337-83.071,6.091-116.01,30.978L1477.63,625c33.956-25.749,79.087-30.594,118.75-31.987,33.571-1.154,68.965-.192,100.035,14.583,27.05,12.851,51.37,37.024,70.257,69.826.916,1.631,1.877,3.307,2.783,4.938C1773.294,689.162,1777.224,696.17,1782.261,702.114Z" transform="translate(-1477.63 -592.661)"/></g><g class="h" transform="translate(157.251 33.317)"><path class="i" d="M1858.6,622.023c-2.685-.531-5.367-1.054-7.959-1.584a489.8,489.8,0,0,0-104.453-9.975c-4.221.046-8.391.1-12.375-1.484-8.674-3.408-11.888-12.137-14.958-20.574a69.612,69.612,0,0,0-4.561-10.653c-7.621-13.429-24.119-18.026-36.924-17.834-12.76.138-25.373,4.122-37.6,7.914l-6.037,1.869c-33.809,10.259-61.051,13.328-85.755,9.682-25.464-3.829-47.805-15.581-62.534-32.417,1.493-.769,2.931-1.585,4.414-2.3,13.906,15.535,34.909,26.426,58.8,29.971,23.98,3.545,50.59.531,83.685-9.5l5.99-1.869c12.568-3.929,25.519-7.959,38.994-8.152,14.142-.192,32.517,5.038,41.146,20.243a79.453,79.453,0,0,1,4.892,11.358c2.83,7.823,5.56,15.16,12.229,17.8,3.067,1.246,6.805,1.2,10.358,1.145a493.679,493.679,0,0,1,105.651,10.076l2.153.431C1855.444,618.084,1857.074,620.054,1858.6,622.023Z" transform="translate(-1485.447 -544.668)"/></g></g></svg>