<svg xmlns="http://www.w3.org/2000/svg" xmlns:xlink="http://www.w3.org/1999/xlink" width="511.417" height="1223.678" viewBox="0 0 511.417 1223.678"><defs><style>.a,.b,.c,.d{fill:#1c248c;}.a,.c,.d{stroke:#f7d967;stroke-width:3px;}.b{opacity:0.14;mix-blend-mode:multiply;}.b,.c{isolation:isolate;}.c{opacity:0.11;mix-blend-mode:overlay;}.d{stroke-miterlimit:10;}.e{fill:#439fc2;}.f{fill:url(#a);}</style><linearGradient id="a" x1="0.5" x2="0.5" y2="1" gradientUnits="objectBoundingBox"><stop offset="0" stop-color="#1c1e7f" stop-opacity="0"/><stop offset="0.695" stop-color="#1a0845"/><stop offset="1" stop-color="#1a0845"/></linearGradient></defs><g transform="translate(-1207.96 -2786.166)"><g transform="translate(2593.021 1451.097)"><path class="a" d="M-1129.6,1719.267l1.552.318-4.267,29.5-1.555-.318Z" transform="translate(136.621 739.353)"/><path class="a" d="M-1120.239,1730.365l1.554.317-4.271,29.495-1.552-.318Z" transform="translate(149.675 746.038)"/><path class="a" d="M-1124.625,1725.353l1.555.32-4.271,29.495-1.554-.32Z" transform="translate(147.033 743.019)"/><path class="a" d="M-1141.078,1722.364l-8.281-.015,58.814,65.024,1.654-.748Z" transform="translate(134.706 741.209)"/><path class="a" d="M-1295.432,1786.625l1.659.748,106.879-65.024-56.35.015Z" transform="translate(0.931 741.209)"/><path class="a" d="M-1108.882,1777.687h18.819l-11.039-6.777-9.033,3.766Z" transform="translate(158.333 770.459)"/><path class="a" d="M-1199.229,1770.91h-4.471l-4.917,6.777h14.309Z" transform="translate(76.125 770.459)"/><path class="a" d="M-1290.7,1777.687h-18.82l11.043-6.777,9.033,3.766Z" transform="translate(-7.556 770.459)"/><path class="a" d="M-1089.72,1806.177h-1.868l-42.024-83.816h16.949Z" transform="translate(144.192 741.216)"/><path class="a" d="M-1103.544,1763.175l-13.118-40.813h-16.95l28.852,57.54A134.436,134.436,0,0,1-1103.544,1763.175Z" transform="translate(144.191 741.216)"/><path class="a" d="M-1275.194,1718.957l-1.554.3,4.049,29.528,1.559-.307Z" transform="translate(19.849 739.167)"/><path class="a" d="M-1284.6,1729.7l-1.553.307,4.053,29.526,1.557-.307Z" transform="translate(6.519 745.639)"/><path class="a" d="M-1280.219,1725.006l-1.552.3,4.048,29.527,1.559-.3Z" transform="translate(14.393 742.809)"/><rect class="a" width="274.707" height="9.535" transform="translate(-1238.897 2467.091)"/><path class="a" d="M-1202.27,1804.952h1.676l6.371-80.556h-14.431Z" transform="translate(76.103 742.442)"/><path class="a" d="M-1037.421,1801.458l-78.67-26.126,21.37-264.724s22.426,77.106,39.3,156.661c4.748,22.381,9.063,45,12.307,66.13A514.98,514.98,0,0,1-1037.421,1801.458Z" transform="translate(145.473 639.733)"/><path class="a" d="M-1031.316,1884.643c-3.324-131.935-61.328-283.017-78.32-307.687,15.023,25.461,67.906,218.966,64.494,302Z" transform="translate(151.425 561.194)"/><path class="a" d="M-1326.653,1853.714l68.547-31.258-5.329-251.579S-1325.5,1747.688-1326.653,1853.714Z" transform="translate(-29.909 587.296)"/><path class="a" d="M-1238.442,1578.923l-1.719-8.046s-82.513,208.675-84.051,334.609l25.966-13.516C-1303.207,1799.062-1250.173,1599.582-1238.442,1578.923Z" transform="translate(-52.908 546.019)"/><path class="a" d="M-1300.834,1806.177h1.868l42.025-83.816h-16.95Z" transform="translate(-2.323 741.216)"/><path class="a" d="M-1287.912,1772l26.048-49.636h-19.573l-9.3,33.474A97.472,97.472,0,0,1-1287.912,1772Z" transform="translate(9.677 741.216)"/><path class="a" d="M-910.8,2092.04c0-42.518-51.009-425.691-67.6-490.382-27.922-108.891-64.82-202.789-121.075-264.333-55.974,64.289-85.4,135.154-120.891,264.123-18.144,65.929-67.783,448.329-67.783,491.123l-19.971,323.929,33.468,38.407h350.352l33.468-38.407Z" transform="translate(-27.938 -0.002)"/><path class="b" d="M-942.485,2361.7c-57.793,39.488-212.271-190.071-251.891-443.327-51.7-330.466-19.23-459.235-12.558-520.2-7.08,24.942-15.687,59.906-24.648,99.746-10.035,44.616-58.76,471.293-58.76,516.981l-17.771,345.85,29.781,41h311.751l29.78-41v-3.482A61.227,61.227,0,0,1-942.485,2361.7Z" transform="translate(-6.707 53.159)"/><path class="a" d="M-1308.114,1707.01l30.523,21.081h319.536l30.524-21.081Z" transform="translate(-6.707 742.109)"/><path class="a" d="M-950.844,1715h-346.615l3.751,11.05c1.16,3.42,4.776,5.767,8.882,5.767h321.347c4.108,0,7.725-2.348,8.884-5.767Z" transform="translate(-0.288 745.854)"/><path class="a" d="M-1297.456,1715.947-1293.7,1727c1.161,3.42,4.776,5.766,8.88,5.766h16.518c10.822-4.923,101.839-8.536,144.159-8.536s133.328,3.613,144.154,8.536h16.512c4.1,0,7.723-2.346,8.882-5.766l3.754-11.048C-951.227,1712.292-1297.845,1712.9-1297.456,1715.947Z" transform="translate(-0.286 744.956)"/><g transform="translate(-1314.822 2449.221)"><path class="a" d="M-927.53,1707.669v-1.754h-380.583v1.754l1.092.754h378.4Z" transform="translate(1308.114 -1705.915)"/></g><path class="a" d="M-1131.03,1507.59h-1.435l25.432,319.291h1.435Z" transform="translate(124.981 205.061)"/><path class="a" d="M-1263.623,1507.59h-1.414l-25.044,319.292h1.413Z" transform="translate(11.739 205.061)"/><g transform="translate(-1254.544 1665.08)"><path class="a" d="M-1028.343,1507.041h-254.371c-.149.586-.3,1.17-.439,1.758h255.247C-1028.042,1508.209-1028.2,1507.627-1028.343,1507.041Z" transform="translate(1283.153 -1507.041)"/></g><g transform="translate(-1234.577 1554.099)"><path class="a" d="M-1056.626,1449.573h-213.7c-.125.587-.253,1.17-.368,1.758h214.434C-1056.372,1450.741-1056.5,1450.16-1056.626,1449.573Z" transform="translate(1270.692 -1449.573)"/></g><path class="a" d="M-1181.806,1363.792h-26a14.722,14.722,0,0,0-1.163,1.506h24.639l-34.785,116.732h-48.051l-.421,1.508h49.368Z" transform="translate(48.81 15.943)"/><path class="c" d="M-1178.715,1364.732h3.938c-.117.12,15.237,21.193,30.858,49.722,17.424,31.826,26.862,66.065,27.105,66.81l-15.685.2Z" transform="translate(91.517 16.509)"/><path class="a" d="M-1132.19,1483.539l16.82-.454c-.119-.339-.219-.8-.352-1.254l-15.685.2-46.217-116.732h3.939c-.483-.508-.671-.92-1.157-1.421l-5.682-.085Z" transform="translate(77.43 15.943)"/><g transform="translate(-1236.837 2473.828)"><path class="a" d="M-1205.752,1766.209c-2.411,0-52.631-.945-54.459-2.811-8.289-8.454-7.594-33.2-7.561-34.244l1.128.037c-.006.252-.711,25.308,7.24,33.417,1.607,1.64,51.555,2.472,53.655,2.472.032,0,.063,0,.1,0a8.386,8.386,0,0,0,6.256-2.891c7.884-8.571,6.224-33.1,6.208-33.351l1.125-.08c.072,1.027,1.713,25.266-6.5,34.2a9.478,9.478,0,0,1-7.074,3.258Z" transform="translate(1267.8 -1728.756)"/></g><g transform="translate(-1155 2473.828)"><path class="a" d="M-1211.864,1753.6a5.921,5.921,0,0,1-4.342-1.906c-5.507-5.621-5.049-21.978-5.028-22.671l1.13.037c-.006.165-.468,16.568,4.706,21.843a4.768,4.768,0,0,0,3.533,1.568h.062a5.271,5.271,0,0,0,3.975-1.843c5.134-5.578,4.044-21.632,4.035-21.8l1.123-.08c.05.679,1.133,16.706-4.326,22.64a6.43,6.43,0,0,1-4.794,2.206Z" transform="translate(1221.252 -1728.756)"/></g><g transform="translate(-1095.03 2473.565)"><path class="a" d="M-1122.089,1753.707c-3.554,0-54.969-.5-57.942-1.5-9.943-3.339-14.889-11.548-13.926-23.111l1.125.093c-.915,10.994,3.758,18.791,13.16,21.944,14.512,4.877,86.424-3.024,98.794-22.542l.955.606C-1090.376,1745.687-1107.9,1753.707-1122.089,1753.707Z" transform="translate(1194.076 -1728.592)"/></g><circle class="a" cx="72.151" cy="72.151" r="72.151" transform="translate(-1198.327 1541.606)"/><rect class="d" width="121.76" height="487.271" transform="translate(-1188.694 1919.512)"/><circle class="d" cx="72.151" cy="72.151" r="72.151" transform="translate(-1198.327 1541.606)"/><path class="e" d="M1578.015,619.726a.941.941,0,1,1-.941-.941A.94.94,0,0,1,1578.015,619.726Z" transform="translate(-2931.756 1790.006)"/><path class="e" d="M1634.653,557.387a1.538,1.538,0,1,1-1.536-1.54A1.535,1.535,0,0,1,1634.653,557.387Z" transform="translate(-2758.814 1670.293)"/><circle class="e" cx="1.538" cy="1.538" r="1.538" transform="translate(-1289.323 2198.744)"/><path class="e" d="M1613.759,580.387a1.538,1.538,0,1,1-1.537-1.536A1.539,1.539,0,0,1,1613.759,580.387Z" transform="translate(-2717.161 1717.477)"/><circle class="e" cx="1.538" cy="1.538" r="1.538" transform="translate(-1060.052 2371.114)"/><path class="e" d="M1612.969,542.12a.941.941,0,1,1-.941-.941A.94.94,0,0,1,1612.969,542.12Z" transform="translate(-2715.825 1656.045)"/><path class="e" d="M1587.151,547.3a.943.943,0,1,1-.94-.941A.942.942,0,0,1,1587.151,547.3Z" transform="translate(-2893.132 1672.437)"/><path class="e" d="M1606.118,586.988a.941.941,0,1,1-.94-.945A.942.942,0,0,1,1606.118,586.988Z" transform="translate(-2812.894 1732.416)"/><path class="e" d="M1641.2,581.771a.943.943,0,1,1-.945-.945A.946.946,0,0,1,1641.2,581.771Z" transform="translate(-2719.718 1721.698)"/><path class="e" d="M1624.534,574.416a.941.941,0,1,1-.94-.941A.94.94,0,0,1,1624.534,574.416Z" transform="translate(-2675.567 1706.597)"/><path class="e" d="M1584.8,590.524a.941.941,0,1,1-.941-.941A.943.943,0,0,1,1584.8,590.524Z" transform="translate(-2903.059 1739.688)"/><circle class="e" cx="1.538" cy="1.538" r="1.538" transform="translate(-1283.799 2158.175)"/><path class="e" d="M1630.546,555.025a.94.94,0,1,1-.941-.941A.94.94,0,0,1,1630.546,555.025Z" transform="translate(-2774.117 1666.763)"/><path class="e" d="M1584.335,535.508a.941.941,0,1,1-.942-.941A.94.94,0,0,1,1584.335,535.508Z" transform="translate(-2905.03 1635.135)"/><circle class="e" cx="1.538" cy="1.538" r="1.538" transform="translate(-1060.069 2244.581)"/><path class="e" d="M1605.03,567.991a.941.941,0,1,1-.941-.94A.94.94,0,0,1,1605.03,567.991Z" transform="translate(-2817.5 1693.401)"/><path class="e" d="M1587.042,588.123a.941.941,0,1,1-.941-.941A.939.939,0,0,1,1587.042,588.123Z" transform="translate(-2893.577 1734.756)"/><path class="e" d="M1601.561,576.394a1.538,1.538,0,1,1-1.54-1.536A1.542,1.542,0,0,1,1601.561,576.394Z" transform="translate(-2836.991 1709.287)"/><path class="e" d="M1604.237,535.161a1.538,1.538,0,1,1-1.54-1.536A1.539,1.539,0,0,1,1604.237,535.161Z" transform="translate(-2825.67 1632.156)"/><path class="e" d="M1622.793,558.3a.943.943,0,1,1-.945-.941A.943.943,0,0,1,1622.793,558.3Z" transform="translate(-2681.641 1673.499)"/><path class="e" d="M1617.173,590.382a.941.941,0,1,1-.941-.941A.944.944,0,0,1,1617.173,590.382Z" transform="translate(-2701.189 1739.396)"/><path class="e" d="M1606.13,550.952a.94.94,0,1,1-.941-.941A.943.943,0,0,1,1606.13,550.952Z" transform="translate(-2812.844 1658.395)"/><path class="e" d="M1608.109,575.825a.943.943,0,1,1-.941-.941A.943.943,0,0,1,1608.109,575.825Z" transform="translate(-2804.49 1709.492)"/><circle class="e" cx="1.538" cy="1.538" r="1.538" transform="translate(-1222.416 2308.042)"/><path class="e" d="M1610.931,619.858a.943.943,0,1,0,.94-.941A.943.943,0,0,0,1610.931,619.858Z" transform="translate(-2716.368 1790.423)"/><path class="e" d="M1636.752,625.042a.941.941,0,1,0,.941-.941A.939.939,0,0,0,1636.752,625.042Z" transform="translate(-2732.799 1806.817)"/><path class="e" d="M1590.514,612.075a.943.943,0,1,0,.945-.941A.943.943,0,0,0,1590.514,612.075Z" transform="translate(-2870.936 1765.808)"/><path class="e" d="M1603.615,603.783a.941.941,0,1,0,.941-.94A.94.94,0,0,0,1603.615,603.783Z" transform="translate(-2815.525 1766.928)"/><path class="e" d="M1605.656,569a.941.941,0,1,0,.941-.941A.94.94,0,0,0,1605.656,569Z" transform="translate(-2806.893 1695.47)"/><path class="e" d="M1584.028,565.458a.943.943,0,1,0,.942-.941A.943.943,0,0,0,1584.028,565.458Z" transform="translate(-2898.367 1688.196)"/><circle class="e" cx="1.538" cy="1.538" r="1.538" transform="translate(-1282.695 2302.044)"/><path class="e" d="M1582.829,602.555a.94.94,0,1,0,.941-.941A.939.939,0,0,0,1582.829,602.555Z" transform="translate(-2903.44 1764.404)"/><path class="e" d="M1603.742,615.749a.943.943,0,1,0,.942-.94A.943.943,0,0,0,1603.742,615.749Z" transform="translate(-2814.987 1777.431)"/><circle class="e" cx="1.538" cy="1.538" r="1.538" transform="translate(-1352.529 2363.323)"/><path class="e" d="M1656.8,559.121a1.776,1.776,0,1,1-1.778-1.777A1.776,1.776,0,0,1,1656.8,559.121Z" transform="translate(-2663.546 1673.325)"/><circle class="e" cx="1.775" cy="1.775" r="1.775" transform="translate(-1210.361 2199.066)"/><circle class="e" cx="1.775" cy="1.775" r="1.775" transform="translate(-1141.976 2311.635)"/><path class="e" d="M1602.351,557.865a.941.941,0,1,1,.941.94A.94.94,0,0,1,1602.351,557.865Z" transform="translate(-2820.872 1672.597)"/><path class="e" d="M1579.832,578.209a.943.943,0,1,1,.945.94A.943.943,0,0,1,1579.832,578.209Z" transform="translate(-2916.115 1714.39)"/><path class="e" d="M1581.89,547.069a.941.941,0,1,1,.941.941A.939.939,0,0,1,1581.89,547.069Z" transform="translate(-2907.411 1671.701)"/><path class="e" d="M1592.933,586.5a.941.941,0,1,1,.941.941A.94.94,0,0,1,1592.933,586.5Z" transform="translate(-2860.705 1731.422)"/><path class="e" d="M1594.974,621.289a.941.941,0,1,1,.941.941A.943.943,0,0,1,1594.974,621.289Z" transform="translate(-2852.072 1794.935)"/><circle class="e" cx="1.538" cy="1.538" r="1.538" transform="translate(-942.612 2300.755)"/><path class="e" d="M1659.1,566.192a.943.943,0,1,1-.946-.941A.944.944,0,0,1,1659.1,566.192Z" transform="translate(-2651.02 1689.703)"/><path class="e" d="M1659.4,573.979a.943.943,0,1,1-.941-.945A.945.945,0,0,1,1659.4,573.979Z" transform="translate(-2650.062 1705.691)"/><path class="e" d="M1633.576,579.158a.941.941,0,1,1-.94-.94A.94.94,0,0,1,1633.576,579.158Z" transform="translate(-2758.636 1716.341)"/><path class="e" d="M1652.548,618.84a.941.941,0,1,1-.942-.941A.944.944,0,0,1,1652.548,618.84Z" transform="translate(-2561.722 1787.203)"/><path class="e" d="M1670.967,606.272a.943.943,0,1,1-.945-.941A.943.943,0,0,1,1670.967,606.272Z" transform="translate(-2613.483 1772.04)"/><path class="e" d="M1631.233,622.38a.943.943,0,1,1-.941-.941A.943.943,0,0,1,1631.233,622.38Z" transform="translate(-2770.631 1798.399)"/><circle class="e" cx="1.538" cy="1.538" r="1.538" transform="translate(-1098.659 2249.96)"/><path class="e" d="M1673.507,595.283a1.538,1.538,0,1,1-1.54-1.536A1.542,1.542,0,0,1,1673.507,595.283Z" transform="translate(-2609.214 1748.031)"/><circle class="e" cx="1.086" cy="1.086" r="1.086" transform="translate(-973.595 2280.984)"/><path class="e" d="M1593.718,601.655a1.776,1.776,0,1,1-1.777-1.777A1.776,1.776,0,0,1,1593.718,601.655Z" transform="translate(-2872.088 1760.514)"/><path class="e" d="M1624.647,615.338a.943.943,0,1,1-.94-.941A.942.942,0,0,1,1624.647,615.338Z" transform="translate(-2675.188 1776.128)"/><circle class="e" cx="1.538" cy="1.538" r="1.538" transform="translate(-1153.247 2360.346)"/><circle class="e" cx="1.538" cy="1.538" r="1.538" transform="translate(-1196.968 2425.653)"/><path class="e" d="M1621.831,603.543a.941.941,0,1,1-.941-.941A.94.94,0,0,1,1621.831,603.543Z" transform="translate(-2684.979 1766.434)"/><path class="e" d="M1596.013,608.726a.943.943,0,1,1-.945-.941A.943.943,0,0,1,1596.013,608.726Z" transform="translate(-2855.649 1755.218)"/><path class="e" d="M1596.316,616.51a.943.943,0,1,1-.941-.941A.943.943,0,0,1,1596.316,616.51Z" transform="translate(-2854.368 1779.835)"/><path class="e" d="M1641.733,603.2a1.538,1.538,0,1,1-1.537-1.536A1.539,1.539,0,0,1,1641.733,603.2Z" transform="translate(-2722.628 1764.261)"/><path class="e" d="M1633.192,608.873a.941.941,0,1,0,.941-.941A.939.939,0,0,0,1633.192,608.873Z" transform="translate(-2750.987 1755.682)"/><path class="e" d="M1636.419,605.944a1.538,1.538,0,1,0,1.54-1.54A1.539,1.539,0,0,0,1636.419,605.944Z" transform="translate(-2734.067 1769.889)"/><path class="e" d="M1630.955,611.424a1.086,1.086,0,1,1-1.086-1.087A1.085,1.085,0,0,1,1630.955,611.424Z" transform="translate(-2773.417 1763.288)"/><path class="e" d="M1601.157,617.406a1.086,1.086,0,1,1-1.086-1.087A1.087,1.087,0,0,1,1601.157,617.406Z" transform="translate(-2835.056 1782.207)"/></g><path class="f" d="M3889.915,3730.417l-3,44.7s-26.567,84.831-40.282,150.865-17.672,113.272-17.672,113.272l60.955,101.591H4303.39l36.573-108.7s3.556-56.637-10.159-120.893-44.7-136.132-44.7-136.132v-44.7Z" transform="translate(-2621 -131)"/></g></svg>