<svg xmlns="http://www.w3.org/2000/svg" xmlns:xlink="http://www.w3.org/1999/xlink" width="506.016" height="1131.285" viewBox="0 0 506.016 1131.285"><defs><style>.a,.c,.d{fill:#1a0845;}.a,.b,.c,.d,.e,.f,.g,.h{stroke:#1a0845;}.b{fill:url(#a);}.c{opacity:0.14;mix-blend-mode:multiply;}.c,.d{isolation:isolate;}.d{opacity:0.11;mix-blend-mode:overlay;}.e{fill:none;}.e,.f,.g{stroke-miterlimit:10;}.e,.f,.g,.h{stroke-width:2px;}.f{fill:url(#b);}.g{fill:#190744;}.h{fill:#3a198b;opacity:0.21;}.i{fill:url(#c);}.j{fill:url(#d);}</style><linearGradient id="a" x1="0.5" x2="0.277" y2="1" gradientUnits="objectBoundingBox"><stop offset="0" stop-color="#3b1791"/><stop offset="0.418" stop-color="#343586"/><stop offset="1" stop-color="#26a1c1"/></linearGradient><linearGradient id="b" x1="0.5" x2="0.5" y2="1" gradientUnits="objectBoundingBox"><stop offset="0" stop-color="#3f2391"/><stop offset="1" stop-color="#36188a"/></linearGradient><linearGradient id="c" x1="0.5" x2="0.5" y2="1" gradientUnits="objectBoundingBox"><stop offset="0" stop-color="#1184be" stop-opacity="0"/><stop offset="1" stop-color="#0f5b94"/></linearGradient><linearGradient id="d" x1="0.5" x2="0.5" y2="1" gradientUnits="objectBoundingBox"><stop offset="0" stop-color="#1184be" stop-opacity="0"/><stop offset="0.485" stop-color="#1182bc"/><stop offset="1" stop-color="#0f5b94"/></linearGradient></defs><g transform="translate(-339.984 -6639.715)"><g transform="translate(1721.248 5303.094)"><path class="a" d="M-1129.6,1719.267l1.552.318-4.267,29.5-1.555-.318Z" transform="translate(136.621 600.522)"/><path class="a" d="M-1120.239,1730.365l1.554.317-4.271,29.495-1.552-.318Z" transform="translate(149.675 607.207)"/><path class="a" d="M-1124.625,1725.353l1.555.32-4.271,29.495-1.554-.32Z" transform="translate(147.033 604.188)"/><path class="a" d="M-1141.078,1722.364l-8.281-.015,58.814,65.024,1.654-.748Z" transform="translate(134.706 602.378)"/><path class="a" d="M-1295.432,1786.625l1.659.748,106.879-65.024-56.35.015Z" transform="translate(0.932 602.378)"/><path class="a" d="M-1108.882,1777.687h18.819l-11.039-6.777-9.033,3.766Z" transform="translate(158.332 631.629)"/><path class="a" d="M-1199.229,1770.91h-4.471l-4.917,6.777h14.309Z" transform="translate(76.125 631.629)"/><path class="a" d="M-1290.7,1777.687h-18.82l11.043-6.777,9.033,3.766Z" transform="translate(-7.556 631.629)"/><path class="a" d="M-1089.72,1806.177h-1.868l-42.024-83.816h16.949Z" transform="translate(144.191 602.386)"/><path class="a" d="M-1103.544,1763.175l-13.118-40.813h-16.95l28.852,57.54A134.436,134.436,0,0,1-1103.544,1763.175Z" transform="translate(144.191 602.386)"/><path class="a" d="M-1275.194,1718.957l-1.554.3,4.049,29.528,1.559-.307Z" transform="translate(19.849 600.336)"/><path class="a" d="M-1284.6,1729.7l-1.553.307,4.053,29.526,1.557-.307Z" transform="translate(6.519 606.808)"/><path class="a" d="M-1280.219,1725.006l-1.552.3,4.048,29.527,1.559-.3Z" transform="translate(14.393 603.979)"/><rect class="a" width="274.707" height="9.535" transform="translate(-1238.898 2328.261)"/><path class="a" d="M-1202.27,1804.952h1.676l6.371-80.556h-14.431Z" transform="translate(76.102 603.612)"/><path class="a" d="M-1051.736,1875.1l-64.355-32.61,4.982-271.615S-1052.885,1760.632-1051.736,1875.1Z" transform="translate(159.953 431.173)"/><path class="a" d="M-1043.975,1858.589c-8.887-113.274-51.415-259.052-65.661-281.633,12.595,23.305,50.768,203.264,52.211,275.4Z" transform="translate(165.904 454.31)"/><path class="a" d="M-1326.653,1858.121l62.3-31.745-4.844-255.5S-1325.607,1750.443-1326.653,1858.121Z" transform="translate(-31.719 448.466)"/><path class="a" d="M-1238.442,1578.923l-1.719-8.046s-86.148,212.074-87.685,338.009l28.218-12.229C-1304.59,1803.749-1250.173,1599.582-1238.442,1578.923Z" transform="translate(-52.908 407.189)"/><path class="a" d="M-1300.834,1806.177h1.868l42.025-83.816h-16.95Z" transform="translate(-2.323 602.386)"/><path class="a" d="M-1287.912,1772l26.048-49.636h-19.573l-9.3,33.474A97.472,97.472,0,0,1-1287.912,1772Z" transform="translate(9.677 602.386)"/><path class="b" d="M-910.8,1998.286c0-37.236-51.009-372.81-67.6-429.465-27.922-95.365-64.82-177.6-121.075-231.5-55.974,56.3-85.4,118.365-120.891,231.313-18.144,57.739-67.783,392.636-67.783,430.114l-19.971,283.689,33.468,33.636h350.352l33.468-33.636Z" transform="translate(-27.938 -0.002)"/><path class="c" d="M-897.754,2228.405c-64.863,34.026-238.24-163.778-282.708-382-58.02-284.751-21.582-395.707-14.094-448.241-7.946,21.492-17.606,51.619-27.664,85.948-11.263,38.444-65.948,406.1-65.948,445.464l-19.945,298.007,33.424,35.331H-924.8l33.423-35.331v-3A69.446,69.446,0,0,1-897.754,2228.405Z" transform="translate(-27.388 56.379)"/><path class="a" d="M-1308.114,1707.01l30.523,21.081h319.536l30.524-21.081Z" transform="translate(-6.707 603.279)"/><path class="a" d="M-950.844,1715h-346.615l3.751,11.05c1.16,3.42,4.776,5.767,8.882,5.767h321.347c4.108,0,7.725-2.348,8.884-5.767Z" transform="translate(-0.288 607.023)"/><path class="a" d="M-1297.456,1715.947-1293.7,1727c1.161,3.42,4.776,5.766,8.88,5.766h16.518c10.822-4.923,101.839-8.536,144.159-8.536s133.328,3.613,144.154,8.536h16.512c4.1,0,7.723-2.346,8.882-5.766l3.754-11.048C-951.227,1712.292-1297.845,1712.9-1297.456,1715.947Z" transform="translate(-0.286 606.126)"/><g transform="translate(-1314.822 2310.391)"><path class="a" d="M-927.53,1707.669v-1.754h-380.583v1.754l1.092.754h378.4Z" transform="translate(1308.114 -1705.915)"/></g><path class="a" d="M-1131.03,1507.59h-1.435l25.432,222.426h1.435Z" transform="translate(124.982 243.48)"/><path class="a" d="M-1263.623,1507.59h-1.414l-25.044,222.427h1.413Z" transform="translate(11.739 243.48)"/><g transform="translate(-1254.544 1665.08)"><path class="a" d="M-1028.343,1507.041h-254.371c-.149.586-.3,1.17-.439,1.758h255.247C-1028.042,1508.209-1028.2,1507.627-1028.343,1507.041Z" transform="translate(1283.153 -1507.041)"/></g><g transform="translate(-1234.577 1554.099)"><path class="a" d="M-1056.626,1449.573h-213.7c-.125.587-.253,1.17-.368,1.758h214.434C-1056.372,1450.741-1056.5,1450.16-1056.626,1449.573Z" transform="translate(1270.692 -1449.573)"/></g><path class="a" d="M-1181.806,1363.792h-26a14.722,14.722,0,0,0-1.163,1.506h24.639l-34.785,116.732h-48.051l-.421,1.508h49.368Z" transform="translate(48.81 15.943)"/><path class="d" d="M-1178.715,1364.732h3.938c-.117.12,15.237,21.193,30.858,49.722,17.424,31.826,26.862,66.065,27.105,66.81l-15.685.2Z" transform="translate(91.517 16.509)"/><path class="a" d="M-1132.19,1483.539l16.82-.454c-.119-.339-.219-.8-.352-1.254l-15.685.2-46.217-116.732h3.939c-.483-.508-.671-.92-1.157-1.421l-5.682-.085Z" transform="translate(77.43 15.943)"/><g transform="translate(-1236.837 2334.998)"><path class="a" d="M-1205.752,1766.209c-2.411,0-52.631-.945-54.459-2.811-8.289-8.454-7.594-33.2-7.561-34.244l1.128.037c-.006.252-.711,25.308,7.24,33.417,1.607,1.64,51.555,2.472,53.655,2.472.032,0,.063,0,.1,0a8.386,8.386,0,0,0,6.256-2.891c7.884-8.571,6.224-33.1,6.208-33.351l1.125-.08c.072,1.027,1.713,25.266-6.5,34.2a9.478,9.478,0,0,1-7.074,3.258Z" transform="translate(1267.8 -1728.756)"/></g><g transform="translate(-1155 2334.998)"><path class="a" d="M-1211.864,1753.6a5.921,5.921,0,0,1-4.342-1.906c-5.507-5.621-5.049-21.978-5.028-22.671l1.13.037c-.006.165-.468,16.568,4.706,21.843a4.768,4.768,0,0,0,3.533,1.568h.062a5.271,5.271,0,0,0,3.975-1.843c5.134-5.578,4.044-21.632,4.035-21.8l1.123-.08c.05.679,1.133,16.706-4.326,22.64a6.43,6.43,0,0,1-4.794,2.206Z" transform="translate(1221.252 -1728.756)"/></g><g transform="translate(-1095.03 2334.735)"><path class="a" d="M-1122.089,1753.707c-3.554,0-54.969-.5-57.942-1.5-9.943-3.339-14.889-11.548-13.926-23.111l1.125.093c-.915,10.994,3.758,18.791,13.16,21.944,14.512,4.877,86.424-3.024,98.794-22.542l.955.606C-1090.376,1745.687-1107.9,1753.707-1122.089,1753.707Z" transform="translate(1194.076 -1728.592)"/></g><circle class="a" cx="72.151" cy="72.151" r="72.151" transform="translate(-1198.327 1541.606)"/><rect class="e" width="121.76" height="487.271" transform="translate(-1188.694 1780.682)"/><circle class="f" cx="77.243" cy="77.243" r="77.243" transform="translate(-1198.749 1541.406)"/><circle class="g" cx="67.835" cy="67.835" r="67.835" transform="translate(-1189.113 1551.042)"/><path class="h" d="M118.967,112.414A67.841,67.841,0,1,1,36.711,7.532c4.385-2.285,57.1,1.229,76.839,36.014S124.412,106.126,118.967,112.414Z" transform="matrix(-0.998, 0.07, -0.07, -0.998, -1047.423, 1680.968)"/></g><path class="i" d="M-48.238-5.36H380.546l-33.23,176.874L12.863,131.851Z" transform="translate(425.794 7536.958)"/><path class="j" d="M0,0H430V148.163H0Z" transform="translate(386 7592.837)"/></g></svg>