<svg xmlns="http://www.w3.org/2000/svg" xmlns:xlink="http://www.w3.org/1999/xlink" width="483.346" height="850.999" viewBox="0 0 483.346 850.999"><defs><style>.a,.b,.d,.h{fill-rule:evenodd;}.a{opacity:0.14;fill:url(#a);}.a,.i{mix-blend-mode:screen;}.a,.c,.e,.f,.g,.i{isolation:isolate;}.b{fill:url(#b);}.c{opacity:0.5;}.c,.f{mix-blend-mode:multiply;}.d{fill:#c4b0b8;}.e{opacity:0.63;}.e,.g{mix-blend-mode:soft-light;}.f{opacity:0.47;}.h{fill:#c4b0ff;}.i{opacity:0.34;fill:url(#c);}</style><radialGradient id="a" cx="-0.023" cy="0.5" r="0.5" gradientTransform="matrix(1.092, -0.845, 1.729, 0.534, 3.132, -1.567)" gradientUnits="objectBoundingBox"><stop offset="0.813" stop-color="#008bc4"/><stop offset="0.834" stop-color="#006f9c"/><stop offset="0.863" stop-color="#004d6d"/><stop offset="0.892" stop-color="#003146"/><stop offset="0.921" stop-color="#001b27"/><stop offset="0.949" stop-color="#000c11"/><stop offset="0.975" stop-color="#000304"/><stop offset="1"/></radialGradient><radialGradient id="b" cx="-0.425" cy="0.503" r="0.688" gradientTransform="matrix(1.094, -0.845, 1.732, 0.534, 4.71, -2.936)" gradientUnits="objectBoundingBox"><stop offset="0" stop-color="#7cc5ff"/><stop offset="0.844" stop-color="#482088"/><stop offset="0.948" stop-color="#403b77"/><stop offset="0.997" stop-color="#4d79d1"/></radialGradient><radialGradient id="c" cx="0.5" cy="0.5" r="1.035" gradientTransform="matrix(0.483, 0, 0, 0.483, 1.935, 25.214)" gradientUnits="objectBoundingBox"><stop offset="0" stop-color="#2c6aff"/><stop offset="0.091" stop-color="#2458d5"/><stop offset="0.227" stop-color="#1b419d"/><stop offset="0.365" stop-color="#122d6d"/><stop offset="0.5" stop-color="#0c1d46"/><stop offset="0.633" stop-color="#061027"/><stop offset="0.762" stop-color="#030711"/><stop offset="0.886" stop-color="#000104"/><stop offset="1"/></radialGradient></defs><g transform="translate(0)"><path class="a" d="M263.589,65.192a477.892,477.892,0,0,1,189.123,42.762A457.955,457.955,0,0,1,496.9,130.91c212.8,125.525,276.289,388.4,141.855,587.1-37.028,54.73-85.181,98.824-140,131.434-10.787,6.448-21.884,12.418-33.178,17.975a487.481,487.481,0,0,1-199.6,48.734c-.795.021-1.592.023-2.389.04Z" transform="translate(-247.943 -65.192)"/><path class="b" d="M291.953,93.562a395.5,395.5,0,0,1,201.411,60.949c184.327,116.446,239.322,360.3,122.875,544.633A392.811,392.811,0,0,1,494.972,821.071c-9.344,5.983-18.956,11.52-28.738,16.676A395.165,395.165,0,0,1,341.2,878.636a387.826,387.826,0,0,1-47.864,4.32c-.46.013-.923.013-1.384.025Z" transform="translate(-276.307 -62.77)"/><g class="c" transform="translate(15.646 30.792)"><path class="d" d="M378.466,862.478c5.162-5.67,10.916-11.515,18.1-14.4,4.788-1.922,9.222-3.723,13.216-7.108,13.847-11.588,21.711-24.688,26.651-41.969,1.822-6.474,3.566-12.93,5.179-19.4,1.186-4.815,1.126-9.938,2.557-14.6,4.157-13.106,9.4-26.076,13.961-39.062,2.184-6.177,4.72-12.475,6.449-18.8,1.919-7.169,2.412-14.69,3.684-21.923,2.431-13.853,4.219-27.013,9.649-40.07,3.457-8.189,7.953-17.372,8.8-26.319.316-2.891.872-7.143-2.291-8.66-3.881-1.9-5.909,3.48-7.11,6.361-3.483,8.449-7.7,16.641-10.461,25.475-4.926,15.846-11.534,30.221-19.491,44.774-11.715,21.589-23.827,43.479-38.028,63.567-11.257,15.97-23.215,31.636-33.49,48.228a193.46,193.46,0,0,1-22.884,30.632V248.255c1.944-6.755,4.828-13.417,5.828-20.344a199.452,199.452,0,0,0,1.59-25.787c.075-6.754-2.023-12.132-4-18.464-1.153-3.613-.7-7.378-1.529-11.065a56.1,56.1,0,0,0-1.891-6.036v-73a391.19,391.19,0,0,1,163.134,39.653,53.721,53.721,0,0,0,4.785,7.214,64.036,64.036,0,0,1,6.6,10.763c2.416,4.549,6,8.667,8.889,12.9,6.535,9.556,14.508,18.577,21.691,27.649,8.047,10.1,16.169,19.97,23.394,30.716,3.277,4.819,5.474,10.259,8.638,15.144,3.2,4.835,6.228,9.5,8.948,14.652,6.613,12.7,13.794,24.927,19.992,37.841,11.191,23.282,18.83,47.619,27.387,71.918,4.331,12.284,6.708,25.051,9.533,37.76,3.156,14.359,8.026,28.291,10.8,42.82,2.211,11.29,4.286,22.9,4.568,34.419.129,6.538.725,13.1.8,19.605.107,8.313-2.106,16.6-2.983,24.84-3.148,27.276-11.008,53.638-17.835,80.1-6.742,25.9-10.437,52.624-18.834,78.1-1.724,5.232-4.167,10.076-6.118,15.232-2.151,5.58-3.736,11.242-6.392,16.641-5.26,10.828-8.045,22.741-13.957,33.295-4.154,7.337-9.717,13.1-14.466,19.852-6.117,8.707-10.719,18.166-15.726,27.505a172.488,172.488,0,0,1-19.834,28.895c-9.344,5.983-18.956,11.52-28.738,16.676.283-.233.6-.514.883-.748,5.527-4.615,12.278-7.907,17.343-12.882,5.364-5.336,10.489-11.166,15.633-16.916a90.876,90.876,0,0,0,16.277-25.44c2.118-4.982,4.463-9.89,6.383-15,2.071-5.561,6.481-9.713,8.453-15.337,2.692-7.849,8.745-14.6,12.9-21.731,7.176-12.229,10.2-26.805,15.165-39.883,5.526-14.508,8.584-29.682,15.3-43.784,3.832-8.022,5-15.527,7.258-23.994,1.981-7.268,1.043-13.286.408-20.764-1.125-14.312-2.385-28.848.067-43.168a216.8,216.8,0,0,1,11.88-41.751c4.289-11.03,6.319-24.792,4.4-36.653-.886-5.23-2.012-10.408-2.978-15.621-1.157-6.433-1.717-12.832-3.595-19.1-2.109-7.1-3.452-14.546-5.592-21.6-2.4-7.837-5.965-15.242-8.4-23.029-3.9-12.424-1.413-26.036-5.521-38.455-.837-2.591-2.377-4.936-3.133-7.544-.793-2.769-.622-5-2.311-7.436-2.054-2.947-6.706-9.939-10.84-10.352-8.32-.86-2.533,26.085-1.655,30.349,1.273,6.575,3.11,12.476,2.825,19.235a87.67,87.67,0,0,1-.908,12.2c-1.19,6.669-4.821,12.96-7.18,19.3-6.494,17.675-14.7,34.683-22.168,51.946-10.142,23.339-19.26,47.668-27.368,71.812-7.614,22.6-14.367,45.469-22.079,68.008-4.072,11.991-8.047,24.045-12.346,35.961-5.217,14.566-9.2,29.568-14.84,43.935-9.2,23.591-18,47.847-30.964,69.676-10.229,17.172-19.922,34.474-30.592,51.364-14.393,22.783-27.5,48.645-46.969,67.605a4.919,4.919,0,0,1-.772.678,387.825,387.825,0,0,1-47.864,4.32A135.106,135.106,0,0,0,378.466,862.478Z" transform="translate(-352.948 -93.562)"/></g><g class="e" transform="translate(15.646 111.811)"><path class="d" d="M639.524,175.4c.391.753.783,1.5,1.186,2.243,2.978,5.452,3.487,10.765,4.694,16.73,1.721,8.508,2.947,17.3,1.793,26.02-1.288,9.741-4.777,19-6.369,28.64a41.418,41.418,0,0,1-1.3,5.214Z" transform="translate(-639.524 -167.594)"/><path class="d" d="M556.074,779.036c10.528-8.05,19.288-18.582,26.61-29.661a409.106,409.106,0,0,0,24.121-40.847c4.75-9.409,10.525-18.05,14.851-27.689,2.095-4.667,4.852-8.615,7.351-13.018,1.432-2.522,1.618-6.015,3.887-7.963,8.713-7.486,3.627,12.4,3.374,14.851-.913,8.821-4.505,17.063-6.943,25.508-.935,3.241-1.923,6.538-2.69,9.826-.738,3.173-.859,6.34-1.987,9.434-4.529,12.433-10.4,24.059-14.936,36.458-1.673,4.573-3.834,9.438-7.21,13.062-3.576,3.838-8.753,6.259-13.174,8.915-5.4,3.244-10.539,6.823-16.442,9.138-2.582,1.012-6.419,2.672-9.168,3.123-2.074.34-2.891-.242-4.882-.621-3.514-.669-4.626-1.447-5.16-5.171a8.174,8.174,0,0,1,2.7-7.534C556.668,776.956,556.959,777.066,556.074,779.036Z" transform="translate(-536.564 -126.38)"/><path class="d" d="M328.019,581.762c-1.771,6.69-3.069,13.184-2.73,20.151.148,3.032,1.045,7.21,4.89,5.3,5.178-2.567,8.121-10.207,10.564-14.97,4.208-8.208,7.635-16.789,11.5-25.163,2.618-5.681,5.326-11.194,7.56-17.048a202.261,202.261,0,0,0,6.842-23.535,72.991,72.991,0,0,0,2.3-17.8c-.007-6.235.53-12.408-.32-18.646-1.113-8.176-.175-17.424-6.029-24.025-4.873-5.5-10.873,8.776-12.126,11.47-4.756,10.234-8.127,21.679-10.639,32.685-1.1,4.817-2.709,9.7-3.418,14.58-.955,6.573-1.378,13.248-2.66,19.781-.609,3.1-.424,6.29-1.1,9.38-.6,2.742-1.258,5.428-1.752,8.2-.555,3.1-1,6.264-1.767,9.286C327.382,578.321,325.332,585.009,328.019,581.762Z" transform="translate(-19.86 -142.89)"/><path class="d" d="M341.822,454.118c-2.592-3.011-2.78-6.019-3.578-9.861-.624-3.005-1.465-5.994-.138-8.949.976-2.169,5.228-3.8,7.017-1.556.933,1.173,1.238,3.495,1.792,4.918a12.03,12.03,0,0,1,1.126,5.666c-.378,4.059-2.5,6.824-5.205,9.553Z" transform="translate(-12.035 -145.631)"/><path class="d" d="M422.781,376.086c-.359,3-.207,6.332-1.1,9.216a64.675,64.675,0,0,1-2.614,6.294c-2.7,6.26-6.014,12.368-9.075,18.473-3.905,7.792-7.484,15.724-11.567,23.426-7.2,13.576-14.679,27.9-18.536,42.813a206.405,206.405,0,0,0-6.182,38.241c-.771,11.33-1.12,22.728.182,34.042a91.035,91.035,0,0,0,2.328,11.256,22.624,22.624,0,0,0,2.673,7.188c2.192,3.293,5.088,3.4,8.491,1.788,5.293-2.5,8.731-7.412,12.416-11.782,5.449-6.464,10.812-12.974,16.37-19.348A243.765,243.765,0,0,0,432.51,517.17c5.124-7.364,9.968-15.381,11.758-24.309a120.625,120.625,0,0,0,2.695-19.068c.266-6.32.557-12.6.311-18.918-.174-4.492.208-8.955-.685-13.415-.39-1.944-.6-3.811-.872-5.763-.412-3.018-1.656-5.8-2.042-8.862a90.8,90.8,0,0,0-5.1-19.944c-1.862-4.958-2.826-10.179-4.7-15.119-1.115-2.933-1.2-5.273-3.2-7.879C429.748,382.695,425.727,378.086,422.781,376.086Z" transform="translate(-149.987 -150.462)"/><path class="d" d="M395.554,357.248c-1.844-3.2-1.988-4.884-2.686-8.384-.5-2.5-1.792-6.192-1.109-8.783a3.7,3.7,0,0,1,2.552-2.94,4.978,4.978,0,0,1,3.892,1.11c2.316,2.1,2.745,5.916,2.5,8.807-.31,3.586-2.013,4.714-4.2,7.319Z" transform="translate(-123.508 -153.792)"/><path class="d" d="M396.812,214.666a28.541,28.541,0,0,0,1.32,6.205c1.393,3.323,3.069,6.378,4.2,9.839a66.735,66.735,0,0,0,4.7,10.459c2.26,4.262,4.031,8.718,6.448,12.9,5.186,8.981,11.315,17.408,16.969,26.1,2.835,4.359,5.9,8.558,8.791,12.88a63.256,63.256,0,0,0,10.575,12.815c3.005,2.63,8.176,7.1,11.617,3,4.273-5.091,3.024-13.718,2.389-19.787a143.335,143.335,0,0,0-13.334-46.153c-6.837-14.421-16.135-30.076-31.182-37.056-6.75-3.131-12.927-7.661-18.648-12.38-6.123-5.05-11.468-11.287-18.13-15.664-4.725-3.1-8.895-6.848-14.268-8.79-1.5-.542-3.713-1.283-5.266-.482-1.5.775-1.286,2.129-1.178,3.743a29.445,29.445,0,0,0,4.409,13.749c3.17,5.089,8.038,8.335,11.557,13.146a58.533,58.533,0,0,1,3.775,4.92c.859,1.491,1.561,3.125,2.411,4.637,1.541,2.739,3.814,4.7,5.926,6.963,1.3,1.4,2.608,2.571,3.9,3.99,1.009,1.109,1.979,2.468,3.06,3.495C397.744,224.046,399.19,224.405,396.812,214.666Z" transform="translate(-154.879 -168.208)"/><path class="d" d="M371.126,306.714c.4,1.81,2.659,12.681,5.983,11.124.908-.425,1.624-2.779,1.81-3.6.434-1.906-.094-3.524-.269-5.394-.234-2.515-1.195-3.319-3.311-4.675-2.939-1.884-4.025.052-4.6,3.163Z" transform="translate(-79.224 -156.665)"/><path class="d" d="M342.314,301.757c-1.02-2.661-1.587-3.6-1.083-6.119.407-2.037.025-4.071.848-6,1.012-2.363,2.448-2.85,4.718-1.663,3.9,2.04,5.8,9.6,7.134,13.3A61.388,61.388,0,0,1,357.7,315.71c.688,6.953-7.316,6.635-10.591,2.133-1.976-2.718-4.83-5.11-6.15-8.248-2.068-4.923.392-8.751,2.233-13.357Z" transform="translate(-24.719 -158.037)"/></g><g class="f" transform="translate(15.646 38.798)"><path class="d" d="M641.8,334.346a51.22,51.22,0,0,1,5.525,20.319,32.968,32.968,0,0,1-.8,11.166c-.772,2.952-1.469,5.927-1.995,8.935-.678,3.877-1.612,7.843-1.912,11.76-.284,3.716-.273,7.46-.583,11.172-.063.761-.146,1.52-.238,2.277Z" transform="translate(-641.8 -81.012)"/><path class="d" d="M572.59,435.012a52.8,52.8,0,0,0,6.293-12.636c6.683-18.091,6.055-37.991,7.417-56.952a115.3,115.3,0,0,1,4.155-22.05c1.113-4.08,1.86-8.6,3.673-12.449,1.779-3.78,4.364-7.6,7.859-9.959,3.706-2.5,7.11-.345,10.255,2.029,4.605,3.479,7.664,9.353,9.7,14.672,3.486,9.124,4.886,19.095,7.906,28.411,1.436,4.428,2.7,9.062,4.413,13.39a128.2,128.2,0,0,0,6.241,12.624c3.2,6.025,6.819,11.539,9.177,18.018a55.178,55.178,0,0,1,3.384,12.274,108.13,108.13,0,0,1,.118,14.442,152.223,152.223,0,0,1-1.006,17.56,144.841,144.841,0,0,1-4.45,19.33c-3.338,11.609-7.349,23.139-11.566,34.458-5.119,13.736-11.261,27.051-16.667,40.663-4.481,11.284-8.883,22.659-13.184,34.012a260.68,260.68,0,0,1-33.714,62.6Z" transform="translate(-572.59 -82.25)"/><path class="d" d="M446.874,100.938a143.451,143.451,0,0,1,16.43,12.331c2.316,1.978,4.592,4.016,6.893,6.026,3.087,2.695,5.108,6.238,7.975,9.181,5.152,5.289,8.587,11.483,12.6,17.6,4.072,6.2,9.061,11.7,13.251,17.874,11.852,17.451,26.519,32.636,38.539,49.947,5.955,8.576,12.376,17.015,17.96,25.808,5.025,7.913,9.284,16.352,14.109,24.4,1.8,3,4.36,9.745,8.88,8.712,3.614-.828,4.132-6.162,4.352-9.257.892-12.518-8.432-23.965-13.086-34.958-2.36-5.576-2.693-12.052-4.922-17.708-2.919-7.4-6.422-16.2-10.9-22.7-9.279-13.453-20.318-25.092-30.313-38-8.238-10.64-18.244-17.8-29.485-24.9-4.7-2.968-9.107-6.481-14.51-7.9C479.589,116.059,471.914,112.653,446.874,100.938Z" transform="translate(-370.706 -100.938)"/><path class="d" d="M553.445,126.454c1.306,6.339,5.557,20.255,14.171,20.373,4.746.065,7.142-7.048,5.586-11.061-1.334-3.44-5.794-5.684-8.723-7.549-1.605-1.021-3.7-3.085-5.547-3.373-1.7-.266-2.936,1.027-4.7.369Z" transform="translate(-472.122 -98.9)"/><path class="d" d="M461.016,300.858c-.475,7.3.343,13.581.784,20.8.387,6.334-.384,12.556-1.1,18.847a171.56,171.56,0,0,1-12.376,46.447c-7.9,19.173-16.71,38.188-21.762,58.366-3.835,15.319-7.332,30.691-10.816,46.089-3.28,14.5-8.8,29.877-8.362,44.9.107,3.7.6,8.9,4.7,10.188,6.526,2.046,14.018-9.294,16.767-13.274,8.309-12.026,15.632-24.893,23.452-37.249,3.743-5.917,7.18-12.069,11.5-17.6a132.748,132.748,0,0,0,14.011-22.117c5.031-9.789,11.334-19.345,14.114-30.086,5.362-20.724,9.655-41.81,13.637-62.82,3.57-18.852,5.091-48.531-14.6-59.12C482.567,299.714,468.013,297.571,461.016,300.858Z" transform="translate(-247.628 -84.007)"/><path class="d" d="M423.827,288.582c-6.79-.778-8.515-.941-11.561-6.657-1.935-3.628-3.131-11.611-.712-15.451,4.842-7.69,13.8-2.362,18.051,2.726,3.72,4.448,9.566,10.969,6.387,16.654a7.018,7.018,0,0,1-4.606,3.942c-2.5.965-8.36.777-9.909,2.507Z" transform="translate(-179.88 -87.136)"/><path class="d" d="M587.32,691.649c3.219-2.788,6.393-5.63,9.459-8.6,6.881-6.668,14.061-12.817,21.452-18.9,4.818-3.966,10.787-10.238,16.821-12.411,6.784-2.443,11-2.557,14.788,3.611,4.833,7.866.952,16.134-2.543,24.037-3.939,8.907-9,18.1-15.318,25.576-6.1,7.212-11.072,14.964-17.846,21.649a119.783,119.783,0,0,0-8.859,9.979c-3.626,4.448-7.981,8.245-11.745,12.61-2.177,2.526-4.228,5.032-6.21,7.553Z" transform="translate(-587.32 -54.05)"/><path class="d" d="M619.365,149.607c2.746,1.655,3.331,2.642,5.2,5.213,1.664,2.289,3.509,5.191,6.21,6.393,6.391,2.842,10.343-5.989,12.413-10.461,2.429-5.242,4.311-10.505,3.1-16.33-.945-4.528-2.162-7.25-5.813-10.334-5.668-4.789-15.283-12.868-20.928-3.654-2.478,4.044-2.813,8.344-2.8,13,.01,3.26.97,5.843,1.918,8.909C619.816,146.073,620.405,149.737,619.365,149.607Z" transform="translate(-613.817 -99.633)"/><path class="d" d="M377.215,405.561c-7-8.181-11.745-17.041-11.645-28.12.023-2.576-.469-5.112,2.082-6.591,2.106-1.221,4,.461,5.444,2.174a31.157,31.157,0,0,1,4.722,9.448,89.963,89.963,0,0,1,2.247,9.712c.345,1.842.752,4.376.056,6.092C379.481,399.854,378.065,401.468,377.215,405.561Z" transform="translate(-75.009 -77.931)"/><path class="d" d="M520.489,704.18c-3.246-2.255-3.588-5.169-4.129-9.181-1.143-8.471.3-17.795,2.486-26,1.944-7.3,5.183-15.4,10.9-20.6,2.561-2.329,6.149-4.995,9.806-4.364,6.286,1.082,10.226,11.079,10.464,16.793.3,7.179-3.224,15.079-5.1,21.9a48.145,48.145,0,0,1-9.018,17.35c-1.492,1.789-2.895,3.816-4.788,5.176-1.772,1.276-3.109,3.234-4.985,4.3-1.794,1.024-4.367,2.219-6.285,1.2a7.219,7.219,0,0,1-2.681-2.76C516.183,706.052,517.283,703.863,520.489,704.18Z" transform="translate(-407.797 -54.582)"/></g><g class="g" transform="translate(0 157.261)"><path class="h" d="M525.2,274.462a2.263,2.263,0,0,0,.073,1.421,2.749,2.749,0,0,0,.556.561c.93.7,2.218-.373,2.834-.918a8.814,8.814,0,0,0,3.12-6.32,6.562,6.562,0,0,0-2.054-4.861c-1.915-1.488-4.514-.975-6.3-.048-1.67.868-3.661,2.5-3.625,4.659a3.789,3.789,0,0,0,.667,2.259c.386.5.952.818,1.384,1.286.578.624.78,1.436,1.61,1.815A2.741,2.741,0,0,0,525.2,274.462Z" transform="translate(-378.071 -205.531)"/><path class="h" d="M515.056,265.573a1.328,1.328,0,0,1-.685-1.189,1.041,1.041,0,0,1,.562-1.25,1.763,1.763,0,0,1,2.291,1.028,1.827,1.827,0,0,1-.458,1.7,1.441,1.441,0,0,1-1.836.082Z" transform="translate(-357.657 -205.566)"/><path class="h" d="M533.285,216.861a3.089,3.089,0,0,0-.257,2.344,1.415,1.415,0,0,0,.774,1.106,6.209,6.209,0,0,0,4.368.214,3.149,3.149,0,0,0,1.874-1.994,8.837,8.837,0,0,0-.039-2.7c-.053-.778-.166-1.552-.3-2.33-.227-1.351-.668-2.7-2.12-3.2a3.88,3.88,0,0,0-3.84.715,5.179,5.179,0,0,0-1.209,2.4C532.26,214.326,531.925,215.055,533.285,216.861Z" transform="translate(-399.982 -210.083)"/><path class="h" d="M536.162,223.175a4.832,4.832,0,0,1,1.855-.852c.216.275.628.157.8.543.25.554-.5.989-.8,1.24a1.99,1.99,0,0,1-1.475.407c-.193-.027-1.053-.142-.758-.484Z" transform="translate(-402.437 -209.038)"/><path class="h" d="M550.966,292.119c.272.944.562,1.986,1.76,2.2,1.114.2,1.974-.834,2.313-1.722a1.51,1.51,0,0,0,.056-1.486c-.35-.49-.853-.919-1.247-1.377-.943-1.1-.67-2.722-2.456-2.982a2.6,2.6,0,0,0-2.213.8c-.772,1.072-.237,2.641.254,3.868Z" transform="translate(-433.026 -203.54)"/><path class="h" d="M537.326,511.041c-.531-.8-1.626-2.085-1.295-3.644.27-1.266.877-1.555,1.571-2.332,1.517-1.7,3.3-3.217,4.41-.766a7.189,7.189,0,0,1-.228,4.74c-.526,1.249-2.214,3.117-3.108,2.4Z" transform="translate(-406.15 -185.076)"/><path class="h" d="M493.611,401.552a10.916,10.916,0,0,0,5.774,5.57c1.5.719,3.375,1.886,4.995.344,3.794-3.614-1.435-13.129-3.241-15.9a16.276,16.276,0,0,0-5.776-5.538c-1.338-.682-4.388-1.3-5.846-.132-1.88,1.5-2.158,4.718-1.645,7,1.184,5.26,5.075,7.373,7.451,11.336Z" transform="translate(-317.111 -195.13)"/><path class="h" d="M499.392,402.2a18.173,18.173,0,0,0-1.217,3.831,4.714,4.714,0,0,0,.28,2.377,1.716,1.716,0,0,0,2.109.32,2.111,2.111,0,0,0,1.224-1.388,4.538,4.538,0,0,0-.253-1.709,12.456,12.456,0,0,0-.916-2.416,5.341,5.341,0,0,0-.532-1.088c-.374-.472-.735-.182-1.16-.31Z" transform="translate(-324.604 -193.715)"/><path class="h" d="M484.187,417.894q.668-.591,1.338-1.178c.38.466,1.012.649.981,1.5a4.432,4.432,0,0,1-.944,2.08c-.538.546-1.136.686-1.625.243-.573-.517-.425-1.473-.131-2.326Z" transform="translate(-293.442 -192.443)"/><path class="h" d="M513.133,494.681c.458.414.834.627,1.462.1a3.567,3.567,0,0,0,1.2-3.282c-.322-1.655-1.524-3.725-2.928-3.69a2.71,2.71,0,0,0-2.153,2.687,11.044,11.044,0,0,0,.351,2.221,3.263,3.263,0,0,0,1.914,1.916Z" transform="translate(-352.27 -186.374)"/><path class="h" d="M658.016,485.224c-.4-.3-.948-.514-.771-1.058a3.353,3.353,0,0,1,2.107-1.534,2.857,2.857,0,0,1,1.967.419,1.94,1.94,0,0,1,.461,1.309,1.683,1.683,0,0,1-.906,1.707c-.444.217-1.462.8-1.9.322Z" transform="translate(-657.211 -186.819)"/><path class="h" d="M486,774.32a16.7,16.7,0,0,1-3.369-9.709,34.04,34.04,0,0,1,1.743-11.875c1.121-3.09,3.755-7.3,6.659-8.951,3.372-1.918,7.309-3.047,10.833-4.659,3.2-1.466,5.7-3.394,9.237-4.212a23.459,23.459,0,0,1,9.829.018c4.934,1.019,11.753,3.769,14.723,8.025,2.711,3.887,1.383,6.107-1.012,9.754-3.408,5.188-10.758,7.463-16.6,8.349-2.953.447-5.671.463-8.557,1.483-3.339,1.179-6.608,2.563-9.856,3.971-3.009,1.306-5.723,3.194-8.879,4.173C489.29,771.14,485.031,772.73,486,774.32Z" transform="translate(-343.063 -165.323)"/><path class="h" d="M517.993,489.495c-5.9-2.183-10.048-12.16-10.508-20.759-.654-12.26,6.159-25.966,13.42-34.649,6.089-7.283,14.416-11.167,21.135-9.155,1.8.539,3.212,1.851,4.973,2.439,1.348.45,2.21.562,2.1,2.907-.273,5.82-3.055,13.53-5.3,18.833-2.471,5.834-5.163,12.339-8.532,17.385-3.024,4.529-6.468,8.511-9.55,13a41.836,41.836,0,0,1-4.7,6.2C520.11,486.611,518.713,489.509,517.993,489.495Z" transform="translate(-381.993 -191.787)"/><path class="h" d="M537.988,426.471c1.486-.169,2.075.144,3.146-1.352a7.74,7.74,0,0,0,1.2-4.122c.072-1.724-.564-4.544-2-4.59-2.553-.08-6.186,8.127-3.209,8.905Z" transform="translate(-406.211 -192.47)"/><path class="h" d="M558.436,259.973c-.784-.877-2.832-2.817-3.017-4.04a3.809,3.809,0,0,1,1.112-2.78,5.962,5.962,0,0,1,4.731-2.493c1.217-.115,2.507-.448,3.581-.061,6.168,2.232-2.209,10.291-6.407,9.373Z" transform="translate(-451.952 -206.64)"/></g><ellipse class="i" cx="194.978" cy="94.2" rx="194.978" ry="94.2" transform="translate(294.949 595.964) rotate(-90.35)"/></g></svg>