<svg xmlns="http://www.w3.org/2000/svg" width="174.5" height="59.449" viewBox="0 0 174.5 59.449"><defs><style>.a{fill:#000;}</style></defs><g transform="translate(-156 -137.697)"><g transform="translate(156 137.697)"><g transform="translate(0 0)"><g transform="translate(0 0.015)"><path class="a" d="M427.02,44.532V73.343a1.113,1.113,0,1,1-2.226,0V44.532a1.113,1.113,0,1,1,2.226,0Z" transform="translate(-424.58 -43.204)"/><path class="a" d="M425.964,74.727a1.329,1.329,0,0,1-1.328-1.328V44.588a1.328,1.328,0,1,1,2.656,0V73.4A1.33,1.33,0,0,1,425.964,74.727Zm0-31.037a.9.9,0,0,0-.9.9V73.4a.9.9,0,0,0,1.8,0V44.588A.9.9,0,0,0,425.964,43.689Z" transform="translate(-424.636 -43.26)"/></g><g transform="translate(6.823)"><path class="a" d="M458.844,44.535V71.257a3.135,3.135,0,0,1-5.681,1.83L433.706,46.02a.911.911,0,0,0-1.65.531V73.345a1.112,1.112,0,1,1-2.225,0V46.55a3.136,3.136,0,0,1,5.682-1.83l19.456,27.069a.91.91,0,0,0,1.649-.531V44.535a1.113,1.113,0,1,1,2.226,0Z" transform="translate(-429.616 -43.193)"/><path class="a" d="M431,74.728a1.329,1.329,0,0,1-1.328-1.326v-26.8A3.3,3.3,0,0,1,432,43.417a3.434,3.434,0,0,1,1.053-.168,3.294,3.294,0,0,1,2.695,1.4L455.2,71.719a.642.642,0,0,0,.542.294.724.724,0,0,0,.233-.038.66.66,0,0,0,.485-.661V44.592a1.328,1.328,0,0,1,2.656,0V71.314a3.3,3.3,0,0,1-2.324,3.189,3.43,3.43,0,0,1-1.054.168,3.3,3.3,0,0,1-2.693-1.4L433.588,46.2a.646.646,0,0,0-.543-.293.785.785,0,0,0-.233.037.664.664,0,0,0-.484.663V73.4A1.329,1.329,0,0,1,431,74.728Zm2.049-31.049a3,3,0,0,0-.921.148,2.876,2.876,0,0,0-2.026,2.78V73.4a.9.9,0,0,0,1.8,0V46.608a1.1,1.1,0,0,1,.782-1.072,1.19,1.19,0,0,1,.364-.057,1.065,1.065,0,0,1,.893.471l19.456,27.069a2.872,2.872,0,0,0,2.345,1.222,3,3,0,0,0,.923-.148,2.877,2.877,0,0,0,2.025-2.78V44.592a.9.9,0,1,0-1.8,0V71.314a1.09,1.09,0,0,1-.783,1.07,1.158,1.158,0,0,1-.364.058,1.067,1.067,0,0,1-.892-.471L435.395,44.9A2.87,2.87,0,0,0,433.048,43.679Z" transform="translate(-429.672 -43.249)"/></g><g transform="translate(40.433 0.015)"><path class="a" d="M486.619,65.666v.946a7.852,7.852,0,0,1-7.842,7.843h-16.3a7.852,7.852,0,0,1-7.843-7.843v-.946a1.113,1.113,0,0,1,2.226,0v.946a5.623,5.623,0,0,0,5.617,5.617h16.3a5.624,5.624,0,0,0,5.617-5.617v-.946a5.624,5.624,0,0,0-5.617-5.617H463.492a7.852,7.852,0,0,1-7.843-7.842v-.946a7.852,7.852,0,0,1,7.843-7.843h13.26a7.852,7.852,0,0,1,7.843,7.843,1.113,1.113,0,0,1-2.226,0,5.623,5.623,0,0,0-5.617-5.617h-13.26a5.623,5.623,0,0,0-5.617,5.617v.946a5.623,5.623,0,0,0,5.617,5.617h15.284A7.849,7.849,0,0,1,486.619,65.666Z" transform="translate(-454.423 -43.204)"/><path class="a" d="M478.833,74.725h-16.3a8.066,8.066,0,0,1-8.057-8.057v-.946a1.327,1.327,0,1,1,2.654,0v.946a5.409,5.409,0,0,0,5.4,5.4h16.3a5.409,5.409,0,0,0,5.4-5.4v-.946a5.408,5.408,0,0,0-5.4-5.4H463.549a8.067,8.067,0,0,1-8.059-8.057v-.946a8.066,8.066,0,0,1,8.059-8.057h13.26a8.065,8.065,0,0,1,8.057,8.057,1.327,1.327,0,1,1-2.654,0,5.409,5.409,0,0,0-5.4-5.4h-13.26a5.409,5.409,0,0,0-5.4,5.4v.946a5.408,5.408,0,0,0,5.4,5.4h15.284a8.065,8.065,0,0,1,8.057,8.057v.946A8.066,8.066,0,0,1,478.833,74.725Zm-23.027-9.9a.9.9,0,0,0-.9.9v.946a7.636,7.636,0,0,0,7.628,7.628h16.3a7.636,7.636,0,0,0,7.628-7.628v-.946a7.635,7.635,0,0,0-7.628-7.627H463.549a5.84,5.84,0,0,1-5.833-5.833v-.946a5.839,5.839,0,0,1,5.833-5.833h13.26a5.839,5.839,0,0,1,5.833,5.833.9.9,0,1,0,1.8,0,7.635,7.635,0,0,0-7.628-7.628h-13.26a7.635,7.635,0,0,0-7.628,7.628v.946a7.636,7.636,0,0,0,7.628,7.628h15.284a5.838,5.838,0,0,1,5.831,5.831v.946a5.839,5.839,0,0,1-5.831,5.833h-16.3a5.839,5.839,0,0,1-5.833-5.833v-.946A.9.9,0,0,0,455.806,64.825Z" transform="translate(-454.479 -43.26)"/></g><g transform="translate(77.009 0.008)"><path class="a" d="M508.174,52.741a9.337,9.337,0,0,1-9.328,9.327H483.859V73.351a1.113,1.113,0,1,1-2.226,0v-12.4a1.113,1.113,0,0,1,1.114-1.112h16.1a7.1,7.1,0,0,0,0-14.2h-16.1a1.113,1.113,0,1,1,0-2.226h16.1A9.338,9.338,0,0,1,508.174,52.741Z" transform="translate(-481.419 -43.199)"/><path class="a" d="M482.8,74.735a1.328,1.328,0,0,1-1.328-1.328v-12.4a1.329,1.329,0,0,1,1.328-1.328h16.1a6.887,6.887,0,1,0,0-13.775H482.8a1.327,1.327,0,1,1,0-2.654h16.1a9.542,9.542,0,0,1,0,19.085H484.131V73.408A1.329,1.329,0,0,1,482.8,74.735Zm0-14.622a.9.9,0,0,0-.9.9v12.4a.9.9,0,1,0,1.8,0V62.124a.215.215,0,0,1,.215-.214H498.9a9.113,9.113,0,0,0,0-18.226H482.8a.9.9,0,1,0,0,1.8h16.1a7.317,7.317,0,1,1,0,14.634Z" transform="translate(-481.475 -43.255)"/></g><g transform="translate(108.16 0.015)"><path class="a" d="M506.851,44.532V73.343a1.113,1.113,0,1,1-2.226,0V44.532a1.113,1.113,0,1,1,2.226,0Z" transform="translate(-504.411 -43.204)"/><path class="a" d="M505.793,74.727a1.329,1.329,0,0,1-1.326-1.328V44.588a1.327,1.327,0,1,1,2.654,0V73.4A1.329,1.329,0,0,1,505.793,74.727Zm0-31.037a.9.9,0,0,0-.9.9V73.4a.9.9,0,1,0,1.8,0V44.588A.9.9,0,0,0,505.793,43.689Z" transform="translate(-504.467 -43.26)"/></g><g transform="translate(114.983 0.008)"><path class="a" d="M536.2,68.158v5.181a1.113,1.113,0,0,1-2.226,0V68.158a6.1,6.1,0,0,0-6.09-6.09h-16V73.351a1.113,1.113,0,1,1-2.226,0v-12.4a1.113,1.113,0,0,1,1.114-1.112h16.1a7.1,7.1,0,1,0,0-14.2h-16.1a1.113,1.113,0,1,1,0-2.226h16.1a9.318,9.318,0,0,1,4.762,17.333A8.319,8.319,0,0,1,536.2,68.158Z" transform="translate(-509.447 -43.199)"/><path class="a" d="M510.831,74.735a1.329,1.329,0,0,1-1.328-1.328v-12.4a1.33,1.33,0,0,1,1.328-1.328h16.1a6.887,6.887,0,0,0,0-13.775h-16.1a1.327,1.327,0,1,1,0-2.654h16.1a9.532,9.532,0,0,1,5.19,17.533,8.492,8.492,0,0,1,4.352,7.426V73.4a1.328,1.328,0,0,1-2.656,0V68.214a5.881,5.881,0,0,0-5.875-5.875H512.159V73.408A1.329,1.329,0,0,1,510.831,74.735Zm0-14.622a.9.9,0,0,0-.9.9v12.4a.9.9,0,0,0,1.8,0V62.124a.215.215,0,0,1,.214-.214h16a6.311,6.311,0,0,1,6.3,6.3V73.4a.9.9,0,1,0,1.8,0V68.214a8.068,8.068,0,0,0-4.448-7.22.218.218,0,0,1-.116-.184.215.215,0,0,1,.1-.192,9.1,9.1,0,0,0-4.653-16.933h-16.1a.9.9,0,1,0,0,1.8h16.1a7.317,7.317,0,0,1,0,14.634Z" transform="translate(-509.503 -43.255)"/></g><g transform="translate(146.135 0.015)"><path class="a" d="M560.589,73.343a1.114,1.114,0,0,1-1.112,1.114H539.835a7.19,7.19,0,0,1-7.182-7.182V50.6a7.19,7.19,0,0,1,7.182-7.182h17.619a1.113,1.113,0,0,1,0,2.226H539.835a4.962,4.962,0,0,0-4.956,4.956V67.274a4.962,4.962,0,0,0,4.956,4.956h19.641A1.113,1.113,0,0,1,560.589,73.343ZM550.12,57.824a1.112,1.112,0,1,1,0,2.225h-9.273a1.112,1.112,0,1,1,0-2.225Z" transform="translate(-532.439 -43.204)"/><path class="a" d="M559.533,74.727H539.891a7.4,7.4,0,0,1-7.4-7.4V50.656a7.4,7.4,0,0,1,7.4-7.4H557.51a1.327,1.327,0,1,1,0,2.654H539.891a4.747,4.747,0,0,0-4.742,4.742V67.331a4.747,4.747,0,0,0,4.742,4.741h19.641a1.328,1.328,0,1,1,0,2.656ZM539.891,43.689a6.975,6.975,0,0,0-6.967,6.967V67.331a6.975,6.975,0,0,0,6.967,6.967h19.641a.9.9,0,1,0,0-1.8H539.891a5.178,5.178,0,0,1-5.171-5.172V50.656a5.178,5.178,0,0,1,5.171-5.172H557.51a.9.9,0,1,0,0-1.8ZM550.176,60.32H540.9a1.328,1.328,0,0,1,0-2.656h9.273a1.328,1.328,0,1,1,0,2.656ZM540.9,58.1a.9.9,0,1,0,0,1.8h9.273a.9.9,0,1,0,0-1.8Z" transform="translate(-532.495 -43.26)"/></g></g></g><path class="a" d="M8.584-9.9H4.929V0h-.9V-9.9H.381v-.762h8.2ZM23.928-3H19.087l-1.1,3h-.945l4.036-10.664h.857L25.972,0h-.937Zm-4.563-.762h4.277L21.5-9.565Zm17.527,3h5.266V0H35.984V-10.664h.908ZM58.221-5.112H53.233V-.762h5.735V0H52.332V-10.664h6.6V-9.9h-5.7v4.028h4.988ZM77.249,0h-.9l-6.13-9.126V0H69.31V-10.664h.908l6.138,9.133v-9.133h.894ZM95.428-9.9H91.773V0h-.9V-9.9H87.225v-.762h8.2Zm16.084,7.28a1.726,1.726,0,0,0-.623-1.4,6.574,6.574,0,0,0-2.278-.981,7.983,7.983,0,0,1-2.417-1.014,2.394,2.394,0,0,1-1.084-2.036,2.386,2.386,0,0,1,1.007-1.989,4.136,4.136,0,0,1,2.574-.765,4.27,4.27,0,0,1,1.9.41,3.11,3.11,0,0,1,1.3,1.143,3,3,0,0,1,.461,1.633h-.908a2.241,2.241,0,0,0-.747-1.759,2.908,2.908,0,0,0-2.007-.665,3.161,3.161,0,0,0-1.948.547,1.705,1.705,0,0,0-.725,1.427,1.614,1.614,0,0,0,.652,1.328,6.042,6.042,0,0,0,2.087.906,9.811,9.811,0,0,1,2.175.814,3.1,3.1,0,0,1,1.113,1.007,2.52,2.52,0,0,1,.374,1.384,2.41,2.41,0,0,1-1.007,2.021,4.289,4.289,0,0,1-2.655.762,5.2,5.2,0,0,1-2.069-.4,3.16,3.16,0,0,1-1.428-1.128,2.912,2.912,0,0,1-.487-1.663h.9a2.129,2.129,0,0,0,.842,1.78,3.565,3.565,0,0,0,2.241.652,3.322,3.322,0,0,0,2-.549A1.717,1.717,0,0,0,111.512-2.622Z" transform="translate(156 197)"/></g></svg>